<?xml version="1.0" encoding="UTF-8" ?>
<!DOCTYPE svg PUBLIC "-//W3C//DTD SVG 1.1//EN" "http://www.w3.org/Graphics/SVG/1.1/DTD/svg11.dtd">
<svg width="260pt" height="338pt" viewBox="0 0 260 338" version="1.1" xmlns="http://www.w3.org/2000/svg">
<path fill="#74756e" d=" M 0.00 0.00 L 39.11 0.00 C 38.33 4.31 40.46 12.56 33.99 12.17 C 35.80 19.48 38.47 26.61 38.40 34.29 C 35.64 46.69 40.84 61.13 34.24 72.23 C 33.57 71.44 32.91 70.65 32.27 69.84 C 29.38 63.42 22.23 61.42 15.96 60.05 C 14.55 55.97 11.33 53.03 6.89 53.99 C 4.48 52.78 2.25 51.26 0.00 49.77 L 0.00 0.00 Z" />
<path fill="#515247" d=" M 39.11 0.00 L 40.07 0.00 C 39.04 11.40 39.95 22.95 38.40 34.29 C 38.47 26.61 35.80 19.48 33.99 12.17 C 40.46 12.56 38.33 4.31 39.11 0.00 Z" />
<path fill="#2d2f29" d=" M 40.07 0.00 L 43.00 0.00 C 41.61 25.65 40.14 51.30 38.94 76.95 L 38.91 78.05 C 38.34 75.34 36.24 73.85 34.24 72.23 C 40.84 61.13 35.64 46.69 38.40 34.29 C 39.95 22.95 39.04 11.40 40.07 0.00 Z" />
<path fill="#707371" d=" M 43.00 0.00 L 48.93 0.00 C 49.78 9.78 46.93 19.87 48.91 29.96 C 46.21 48.16 47.53 66.95 44.87 84.93 C 41.70 84.01 41.53 79.12 38.94 76.95 C 40.14 51.30 41.61 25.65 43.00 0.00 Z" />
<path fill="#565d5c" d=" M 48.93 0.00 L 52.06 0.00 C 51.99 0.70 51.84 2.10 51.76 2.80 C 51.01 8.79 46.48 21.70 56.13 21.66 C 54.72 21.97 53.06 21.96 52.22 23.34 C 51.97 29.56 50.92 35.84 52.02 42.04 C 51.34 45.37 50.38 48.67 49.98 52.06 C 50.97 61.24 50.62 70.47 48.83 79.54 C 46.99 86.06 49.21 92.38 49.98 98.76 C 49.44 99.01 48.37 99.52 47.83 99.78 L 48.07 98.95 C 48.64 91.24 40.49 85.64 38.91 78.05 L 38.94 76.95 C 41.53 79.12 41.70 84.01 44.87 84.93 C 47.53 66.95 46.21 48.16 48.91 29.96 C 46.93 19.87 49.78 9.78 48.93 0.00 Z" />
<path fill="#101611" d=" M 52.06 0.00 L 123.03 0.00 C 122.96 3.92 122.89 7.85 122.82 11.77 C 122.47 14.48 122.24 17.21 121.75 19.89 C 98.55 20.10 75.33 20.06 52.12 19.91 C 51.93 14.21 51.87 8.51 51.76 2.80 C 51.84 2.10 51.99 0.70 52.06 0.00 Z" />
<path fill="#6a706e" d=" M 123.03 0.00 L 124.03 0.00 C 123.82 5.08 124.71 10.32 123.29 15.28 C 123.17 14.40 122.93 12.65 122.82 11.77 C 122.89 7.85 122.96 3.92 123.03 0.00 Z" />
<path fill="#b4c0be" d=" M 124.03 0.00 L 169.30 0.00 C 169.14 4.06 167.49 7.99 162.15 6.29 C 159.79 13.66 161.18 21.04 168.81 24.36 C 172.27 31.74 164.94 32.88 160.03 34.18 C 159.68 38.36 166.01 36.39 168.75 38.18 C 168.94 41.53 168.14 45.08 170.04 48.07 C 164.02 48.04 157.99 46.49 152.03 47.92 C 148.72 47.96 152.68 41.85 148.97 42.12 C 145.87 42.41 139.74 46.50 139.74 41.16 C 139.97 38.18 134.59 37.98 134.95 40.98 C 134.16 46.47 127.03 42.64 123.08 43.65 C 122.91 39.34 122.92 35.02 122.72 30.70 C 122.86 27.47 122.99 24.23 122.98 20.99 C 123.04 19.09 123.13 17.18 123.29 15.28 C 124.71 10.32 123.82 5.08 124.03 0.00 Z" />
<path fill="#aebab8" d=" M 169.30 0.00 L 226.00 0.00 C 226.36 12.28 225.65 24.54 224.77 36.78 C 223.10 70.58 220.75 104.37 220.10 138.22 C 218.94 155.76 218.32 173.34 216.75 190.87 C 216.42 197.31 215.78 203.77 216.18 210.23 C 216.13 213.21 216.18 216.23 216.11 219.23 C 215.44 225.06 215.06 230.91 214.73 236.78 C 214.11 241.56 213.97 246.41 214.14 251.23 C 214.07 254.58 214.08 257.96 214.34 261.31 C 214.00 262.94 213.50 264.54 212.93 266.12 C 211.00 266.07 209.07 266.05 207.15 266.03 C 205.25 264.80 203.34 263.52 201.14 262.91 C 197.14 261.88 190.95 261.14 190.57 255.84 C 188.62 251.60 186.61 247.09 183.11 243.85 C 181.87 242.26 180.83 240.53 179.97 238.71 C 177.90 234.55 175.63 229.53 170.91 227.93 C 163.93 223.27 170.75 210.61 169.36 203.27 C 169.64 201.57 169.86 199.85 170.03 198.14 C 170.52 194.82 179.89 192.31 172.98 191.69 C 173.23 187.60 176.71 186.22 179.44 184.29 C 181.31 182.06 182.23 179.02 181.53 176.16 C 182.55 172.48 188.37 174.16 189.47 170.57 C 186.79 161.71 204.55 163.75 199.85 155.19 C 195.81 152.86 193.09 144.19 199.73 144.58 C 199.90 138.59 206.30 132.17 198.26 127.80 C 190.40 121.73 201.59 109.73 196.09 103.86 C 195.76 104.18 195.11 104.83 194.78 105.15 C 194.62 104.89 194.31 104.37 194.15 104.11 C 195.00 101.30 192.28 99.26 191.01 97.05 C 187.78 93.27 191.68 87.89 188.10 84.74 C 187.08 81.50 186.24 78.22 185.11 75.03 C 185.75 61.43 170.87 57.77 161.17 52.77 C 156.05 47.77 145.85 49.31 142.59 55.79 C 138.88 55.85 135.59 53.79 131.88 53.97 C 130.38 52.84 128.90 51.68 127.29 50.72 C 121.64 45.70 113.59 49.82 106.99 49.85 C 103.93 50.46 100.90 51.27 97.81 51.70 C 100.77 49.83 104.03 48.48 107.30 47.24 C 104.40 47.05 101.53 46.96 98.71 46.32 C 105.87 46.00 113.05 46.13 120.22 45.82 C 122.76 45.85 123.33 43.99 121.91 40.26 C 121.96 37.05 121.84 33.81 122.72 30.70 C 122.92 35.02 122.91 39.34 123.08 43.65 C 127.03 42.64 134.16 46.47 134.95 40.98 C 134.59 37.98 139.97 38.18 139.74 41.16 C 139.74 46.50 145.87 42.41 148.97 42.12 C 152.68 41.85 148.72 47.96 152.03 47.92 C 157.99 46.49 164.02 48.04 170.04 48.07 C 168.14 45.08 168.94 41.53 168.75 38.18 C 166.01 36.39 159.68 38.36 160.03 34.18 C 164.94 32.88 172.27 31.74 168.81 24.36 C 161.18 21.04 159.79 13.66 162.15 6.29 C 167.49 7.99 169.14 4.06 169.30 0.00 Z" />
<path fill="#5b6b6a" d=" M 226.00 0.00 L 226.99 0.00 C 226.98 6.89 226.84 13.78 227.18 20.66 C 231.03 21.85 234.91 23.03 238.84 23.97 C 239.27 15.98 240.20 8.02 240.07 0.00 L 245.04 0.00 C 244.97 2.59 244.89 5.19 244.81 7.78 C 244.05 17.51 243.32 27.26 242.96 37.00 C 242.58 39.35 245.17 40.14 246.62 41.38 C 247.04 43.77 247.37 46.24 249.22 48.00 C 249.70 55.19 248.86 62.38 249.18 69.58 L 248.19 70.04 C 246.90 63.42 249.98 52.96 246.97 47.99 C 241.50 46.29 243.08 52.10 242.78 55.77 C 242.06 60.87 241.94 66.03 242.10 71.17 C 242.05 71.59 241.95 72.41 241.89 72.83 C 240.85 77.90 240.90 83.09 241.21 88.23 C 241.07 89.75 240.90 91.26 240.75 92.78 C 241.47 96.14 237.18 108.92 243.94 108.20 C 247.29 109.51 250.91 110.09 254.48 109.22 C 256.31 109.07 258.15 109.00 260.00 108.94 L 260.00 112.99 C 255.96 115.27 242.28 108.59 243.20 115.80 C 242.06 115.47 240.60 114.59 240.37 116.39 C 239.13 125.22 239.61 134.10 239.10 142.96 C 240.15 142.75 241.19 142.51 242.23 142.24 L 242.26 143.25 C 242.10 147.55 241.99 151.87 241.91 156.19 L 241.03 155.90 C 240.11 153.61 242.97 147.49 239.15 148.01 C 238.22 165.71 237.12 183.41 235.38 201.05 C 235.20 203.14 236.92 204.24 238.85 204.21 C 235.89 214.13 249.95 212.50 254.86 209.70 C 252.83 200.26 257.40 191.44 256.19 182.31 C 257.43 181.70 258.71 181.19 260.00 180.68 L 260.00 213.81 C 253.05 215.56 245.95 213.66 238.96 214.85 C 241.75 212.15 235.27 206.35 234.64 211.61 C 231.07 222.47 231.60 234.41 229.67 245.69 C 228.51 248.63 223.60 251.36 220.94 249.13 C 222.87 248.14 226.00 247.82 226.21 245.15 C 228.12 236.57 229.83 227.66 228.42 218.87 C 228.27 215.56 231.91 211.05 228.32 208.69 C 226.87 206.25 221.12 208.78 222.12 205.30 C 225.40 204.79 231.20 203.76 231.33 199.36 C 233.67 175.80 233.36 151.64 237.35 128.42 C 234.85 123.87 240.32 115.35 233.16 114.92 C 231.62 114.92 228.54 114.90 227.00 114.90 C 221.01 120.13 219.46 108.50 223.84 109.02 C 227.94 110.39 233.88 108.61 235.27 104.14 C 236.31 98.81 235.86 93.37 236.00 87.99 C 237.31 82.41 236.86 76.67 237.02 71.00 C 237.62 63.18 239.36 54.86 237.81 47.15 C 233.58 46.94 229.35 47.20 225.13 46.87 C 224.99 43.50 224.89 40.14 224.77 36.78 C 225.65 24.54 226.36 12.28 226.00 0.00 Z" />
<path fill="#0d0f0e" d=" M 226.99 0.00 L 240.07 0.00 C 240.20 8.02 239.27 15.98 238.84 23.97 C 234.91 23.03 231.03 21.85 227.18 20.66 C 226.84 13.78 226.98 6.89 226.99 0.00 Z" />
<path fill="#0f120d" d=" M 245.04 0.00 L 260.00 0.00 L 260.00 29.41 C 256.35 36.45 242.12 38.37 244.67 26.78 C 245.03 20.46 245.02 14.11 244.81 7.78 C 244.89 5.19 244.97 2.59 245.04 0.00 Z" />
<path fill="#384949" d=" M 56.13 21.66 C 46.48 21.70 51.01 8.79 51.76 2.80 C 51.87 8.51 51.93 14.21 52.12 19.91 C 75.33 20.06 98.55 20.10 121.75 19.89 C 122.24 17.21 122.47 14.48 122.82 11.77 C 122.93 12.65 123.17 14.40 123.29 15.28 C 123.13 17.18 123.04 19.09 122.98 20.99 C 100.72 21.62 78.32 19.87 56.13 21.66 Z" />
<path fill="#3f4641" d=" M 242.96 37.00 C 243.32 27.26 244.05 17.51 244.81 7.78 C 245.02 14.11 245.03 20.46 244.67 26.78 C 243.64 31.94 243.43 37.09 246.62 41.38 C 245.17 40.14 242.58 39.35 242.96 37.00 Z" />
<path fill="#58747f" d=" M 56.13 21.66 C 78.32 19.87 100.72 21.62 122.98 20.99 C 122.99 24.23 122.86 27.47 122.72 30.70 C 121.84 33.81 121.96 37.05 121.91 40.26 C 118.64 39.64 116.84 36.04 113.17 37.31 C 107.90 36.91 106.82 29.60 112.15 27.87 C 103.42 20.70 89.92 25.81 79.41 22.53 C 72.90 21.30 66.59 24.11 60.10 23.55 C 57.21 29.43 57.99 37.60 52.02 42.04 C 50.92 35.84 51.97 29.56 52.22 23.34 C 53.06 21.96 54.72 21.97 56.13 21.66 Z" />
<path fill="#5e7d89" d=" M 60.10 23.55 C 66.59 24.11 72.90 21.30 79.41 22.53 C 89.92 25.81 103.42 20.70 112.15 27.87 C 106.82 29.60 107.90 36.91 113.17 37.31 C 116.84 36.04 118.64 39.64 121.91 40.26 C 123.33 43.99 122.76 45.85 120.22 45.82 C 107.00 45.58 92.84 42.81 79.94 45.91 C 79.68 46.16 79.14 46.67 78.87 46.93 C 77.70 48.39 78.08 50.36 77.89 52.08 C 72.63 54.28 70.21 47.50 65.58 48.46 C 60.65 50.30 53.68 47.83 49.98 52.06 C 50.38 48.67 51.34 45.37 52.02 42.04 C 57.99 37.60 57.21 29.43 60.10 23.55 Z" />
<path fill="#17231a" d=" M 246.62 41.38 C 243.43 37.09 243.64 31.94 244.67 26.78 C 242.12 38.37 256.35 36.45 260.00 29.41 L 260.00 48.00 C 256.39 48.00 252.82 48.01 249.22 48.00 C 247.37 46.24 247.04 43.77 246.62 41.38 Z" />
<path fill="#769291" d=" M 220.10 138.22 C 220.75 104.37 223.10 70.58 224.77 36.78 C 224.89 40.14 224.99 43.50 225.13 46.87 C 229.35 47.20 233.58 46.94 237.81 47.15 C 239.36 54.86 237.62 63.18 237.02 71.00 C 237.00 63.34 237.21 55.67 236.91 48.01 C 234.48 48.03 229.63 48.06 227.21 48.07 C 225.22 53.01 226.33 58.56 225.78 63.77 C 224.88 69.22 225.12 74.74 225.24 80.23 C 225.08 82.08 224.92 83.92 224.78 85.77 C 224.04 90.89 223.83 96.08 224.23 101.24 C 224.17 102.96 224.04 106.39 223.98 108.10 L 223.84 109.02 C 219.46 108.50 221.01 120.13 227.00 114.90 C 228.54 114.90 231.62 114.92 233.16 114.92 C 234.73 121.55 233.61 128.29 233.04 134.96 C 229.01 136.26 220.88 132.00 220.10 138.22 Z" />
<path fill="#84a8ab" d=" M 79.94 45.91 C 92.84 42.81 107.00 45.58 120.22 45.82 C 113.05 46.13 105.87 46.00 98.71 46.32 C 92.45 46.03 86.20 45.91 79.94 45.91 Z" />
<path fill="#d2f0eb" d=" M 79.94 45.91 C 86.20 45.91 92.45 46.03 98.71 46.32 C 101.53 46.96 104.40 47.05 107.30 47.24 C 104.03 48.48 100.77 49.83 97.81 51.70 C 93.19 54.40 88.89 57.61 84.10 60.02 C 82.46 61.13 80.91 62.39 79.14 63.30 C 78.97 57.84 78.88 52.38 78.87 46.93 C 79.14 46.67 79.68 46.16 79.94 45.91 Z" />
<path fill="#9da193" d=" M 77.89 52.08 C 78.08 50.36 77.70 48.39 78.87 46.93 C 78.88 52.38 78.97 57.84 79.14 63.30 C 80.91 62.39 82.46 61.13 84.10 60.02 C 82.69 70.29 67.49 72.91 65.14 82.14 C 63.77 82.56 62.37 82.88 60.97 83.18 C 60.71 82.17 60.45 81.15 60.20 80.14 C 61.84 71.54 72.15 71.51 77.90 66.72 C 78.08 61.84 78.10 56.96 77.89 52.08 Z" />
<path fill="#798f90" d=" M 65.58 48.46 C 70.21 47.50 72.63 54.28 77.89 52.08 C 78.10 56.96 78.08 61.84 77.90 66.72 C 72.15 71.51 61.84 71.54 60.20 80.14 C 59.50 78.35 58.61 76.64 57.67 74.96 C 53.88 76.96 58.31 83.85 53.92 85.01 C 50.26 86.22 50.03 81.86 48.83 79.54 C 50.62 70.47 50.97 61.24 49.98 52.06 C 53.68 47.83 60.65 50.30 65.58 48.46 Z" />
<path fill="#90968b" d=" M 106.99 49.85 C 113.59 49.82 121.64 45.70 127.29 50.72 C 120.50 51.11 113.76 50.03 106.99 49.85 Z" />
<path fill="#bbecec" d=" M 227.21 48.07 C 229.63 48.06 234.48 48.03 236.91 48.01 C 237.21 55.67 237.00 63.34 237.02 71.00 C 235.65 76.57 236.13 82.32 236.00 87.99 C 234.59 93.28 235.20 98.75 235.27 104.14 C 231.76 106.12 228.20 108.22 223.98 108.10 C 224.04 106.39 224.17 102.96 224.23 101.24 C 224.92 96.11 225.16 90.93 224.78 85.77 C 224.92 83.92 225.08 82.08 225.24 80.23 C 226.11 74.78 225.88 69.26 225.78 63.77 C 226.33 58.56 225.22 53.01 227.21 48.07 Z" />
<path fill="#b1e2e0" d=" M 242.78 55.77 C 243.08 52.10 241.50 46.29 246.97 47.99 C 247.81 65.07 245.64 82.10 246.15 99.16 C 240.42 103.38 240.48 97.84 240.75 92.78 C 240.90 91.26 241.07 89.75 241.21 88.23 C 241.99 83.13 242.04 77.97 241.89 72.83 C 241.95 72.41 242.05 71.59 242.10 71.17 C 243.11 66.10 243.12 60.91 242.78 55.77 Z" />
<path fill="#84aca7" d=" M 246.97 47.99 C 249.98 52.96 246.90 63.42 248.19 70.04 C 246.57 79.58 248.58 89.91 246.15 99.16 C 245.64 82.10 247.81 65.07 246.97 47.99 Z" />
<path fill="#474630" d=" M 249.22 48.00 C 252.82 48.01 256.39 48.00 260.00 48.00 L 260.00 108.94 C 258.15 109.00 256.31 109.07 254.48 109.22 C 251.93 108.48 249.06 108.56 247.00 106.77 C 248.29 94.48 250.38 81.77 249.18 69.58 C 248.86 62.38 249.70 55.19 249.22 48.00 Z" />
<path fill="#0d0b0b" d=" M 0.00 49.77 C 2.25 51.26 4.48 52.78 6.89 53.99 C 10.23 55.51 13.31 57.48 15.96 60.05 C 20.81 64.10 27.49 65.44 32.27 69.84 C 32.91 70.65 33.57 71.44 34.24 72.23 C 36.24 73.85 38.34 75.34 38.91 78.05 C 40.49 85.64 48.64 91.24 48.07 98.95 C 37.86 95.95 42.14 105.44 41.92 110.66 C 39.22 110.46 36.54 111.10 35.82 113.72 C 32.14 113.01 32.30 116.50 31.02 118.87 C 43.64 120.06 30.17 118.05 32.28 122.86 C 34.63 122.89 41.75 120.47 37.47 123.50 C 34.48 126.82 33.24 136.06 39.61 136.34 C 42.18 138.00 48.21 137.08 44.86 141.02 C 41.03 145.44 55.29 143.38 49.30 145.10 C 45.90 144.99 47.84 147.22 48.89 149.06 C 46.73 149.85 42.21 149.92 44.78 153.13 C 45.61 158.91 53.39 153.58 53.27 158.69 C 44.57 158.97 35.83 162.43 27.12 160.93 C 22.28 160.12 24.96 150.85 19.79 151.55 C 14.69 153.05 13.49 149.41 14.93 145.18 C 10.14 143.44 5.01 146.95 0.00 144.82 L 0.00 124.49 C 0.95 122.66 1.82 120.79 2.71 118.92 C 3.05 120.79 3.01 122.94 4.70 124.18 C 6.35 120.22 5.70 116.30 3.18 112.92 C 2.04 110.49 1.05 107.99 0.00 105.53 L 0.00 49.77 Z" />
<path fill="#9b8065" d=" M 97.81 51.70 C 100.90 51.27 103.93 50.46 106.99 49.85 C 105.42 53.22 95.14 56.37 102.28 57.83 C 104.92 60.48 100.70 63.86 98.92 66.01 C 98.37 66.31 97.28 66.91 96.73 67.21 C 91.42 76.85 87.42 88.20 80.69 96.80 C 79.17 100.56 76.29 103.78 72.03 104.11 C 73.46 99.62 76.78 96.26 79.53 92.58 C 81.47 89.75 77.55 91.68 76.22 92.12 C 73.70 95.93 68.88 97.65 66.88 101.79 C 57.93 108.44 56.15 121.17 54.19 131.25 C 51.92 134.69 47.53 135.16 43.86 136.08 C 42.44 136.15 41.02 136.24 39.61 136.34 C 39.20 132.34 40.86 127.70 38.39 124.12 C 44.91 123.15 36.18 121.49 37.42 118.21 C 33.33 118.69 34.33 116.35 35.82 113.72 C 41.46 115.21 48.49 111.68 47.22 105.20 C 53.40 98.86 58.11 91.52 60.97 83.18 C 62.37 82.88 63.77 82.56 65.14 82.14 C 68.06 81.54 72.62 82.84 69.41 87.35 C 66.60 91.62 62.56 95.20 60.86 100.11 C 65.38 99.41 65.53 91.66 70.72 92.45 C 74.25 90.23 76.97 86.75 80.83 84.89 C 84.22 81.27 82.54 73.23 88.66 72.30 C 88.07 70.08 88.31 67.48 90.98 66.83 C 93.93 65.57 88.01 62.23 90.97 61.13 C 95.30 60.41 98.33 55.97 97.81 51.70 Z" />
<path fill="#7b6654" d=" M 106.99 49.85 C 113.76 50.03 120.50 51.11 127.29 50.72 C 128.90 51.68 130.38 52.84 131.88 53.97 C 132.25 54.45 132.98 55.42 133.34 55.90 C 129.13 55.34 124.46 49.97 120.40 53.37 C 114.79 59.89 105.93 61.53 98.92 66.01 C 100.70 63.86 104.92 60.48 102.28 57.83 C 95.14 56.37 105.42 53.22 106.99 49.85 Z" />
<path fill="#a49d92" d=" M 142.59 55.79 C 145.85 49.31 156.05 47.77 161.17 52.77 C 151.62 50.12 148.34 63.75 139.51 60.27 C 138.54 62.56 137.37 64.91 135.06 66.11 C 132.91 63.01 136.13 58.63 133.34 55.90 C 132.98 55.42 132.25 54.45 131.88 53.97 C 135.59 53.79 138.88 55.85 142.59 55.79 Z" />
<path fill="#c1a88b" d=" M 84.10 60.02 C 88.89 57.61 93.19 54.40 97.81 51.70 C 98.33 55.97 95.30 60.41 90.97 61.13 C 88.01 62.23 93.93 65.57 90.98 66.83 C 88.31 67.48 88.07 70.08 88.66 72.30 C 82.54 73.23 84.22 81.27 80.83 84.89 C 76.97 86.75 74.25 90.23 70.72 92.45 C 65.53 91.66 65.38 99.41 60.86 100.11 C 62.56 95.20 66.60 91.62 69.41 87.35 C 72.62 82.84 68.06 81.54 65.14 82.14 C 67.49 72.91 82.69 70.29 84.10 60.02 Z" />
<path fill="#4f3a29" d=" M 120.40 53.37 C 124.46 49.97 129.13 55.34 133.34 55.90 C 132.63 59.21 131.83 62.50 130.94 65.77 C 128.77 65.34 126.23 64.67 126.33 67.75 C 128.76 71.05 132.18 73.82 133.07 78.03 C 133.44 80.27 133.92 82.51 133.99 84.79 C 130.96 84.40 128.02 85.12 125.12 85.91 C 124.82 81.17 124.74 76.40 123.95 71.71 C 124.59 67.93 121.73 62.27 117.44 63.22 C 116.02 66.06 113.31 69.93 117.00 72.23 C 117.27 74.14 116.23 75.43 114.60 76.23 C 112.89 73.18 108.03 72.27 109.81 67.93 C 106.20 67.96 107.14 74.52 103.03 74.03 C 100.49 74.60 104.86 68.79 101.36 70.43 C 98.88 71.69 97.66 69.05 96.73 67.21 C 97.28 66.91 98.37 66.31 98.92 66.01 C 105.93 61.53 114.79 59.89 120.40 53.37 Z" />
<path fill="#8f8577" d=" M 139.51 60.27 C 148.34 63.75 151.62 50.12 161.17 52.77 C 170.87 57.77 185.75 61.43 185.11 75.03 C 179.64 67.91 169.14 65.21 166.65 56.10 C 157.48 58.19 147.84 61.22 141.62 68.62 C 136.08 67.40 133.87 69.41 136.05 73.81 C 136.09 76.53 136.69 80.65 133.07 78.03 C 132.18 73.82 128.76 71.05 126.33 67.75 C 126.23 64.67 128.77 65.34 130.94 65.77 C 131.83 62.50 132.63 59.21 133.34 55.90 C 136.13 58.63 132.91 63.01 135.06 66.11 C 137.37 64.91 138.54 62.56 139.51 60.27 Z" />
<path fill="#3e3f3c" d=" M 6.89 53.99 C 11.33 53.03 14.55 55.97 15.96 60.05 C 13.31 57.48 10.23 55.51 6.89 53.99 Z" />
<path fill="#796a59" d=" M 141.62 68.62 C 147.84 61.22 157.48 58.19 166.65 56.10 C 169.14 65.21 179.64 67.91 185.11 75.03 C 186.24 78.22 187.08 81.50 188.10 84.74 C 186.54 86.60 185.78 88.79 186.90 91.10 C 184.22 89.21 182.06 86.61 182.49 83.20 C 178.45 79.85 175.24 75.91 172.23 71.70 C 169.67 68.90 165.36 68.78 163.40 72.25 C 164.69 61.78 156.29 66.38 151.30 68.31 C 148.46 70.19 146.05 72.62 144.51 75.68 C 141.68 75.95 138.97 73.89 136.05 73.81 C 133.87 69.41 136.08 67.40 141.62 68.62 Z" />
<path fill="#87aba7" d=" M 242.10 71.17 C 241.94 66.03 242.06 60.87 242.78 55.77 C 243.12 60.91 243.11 66.10 242.10 71.17 Z" />
<path fill="#42423f" d=" M 15.96 60.05 C 22.23 61.42 29.38 63.42 32.27 69.84 C 27.49 65.44 20.81 64.10 15.96 60.05 Z" />
<path fill="#897966" d=" M 117.44 63.22 C 121.73 62.27 124.59 67.93 123.95 71.71 C 120.21 77.06 125.31 84.48 120.32 89.38 C 119.68 83.73 120.80 77.04 117.00 72.23 C 113.31 69.93 116.02 66.06 117.44 63.22 Z" />
<path fill="#9bc1c2" d=" M 225.24 80.23 C 225.12 74.74 224.88 69.22 225.78 63.77 C 225.88 69.26 226.11 74.78 225.24 80.23 Z" />
<path fill="#684e3a" d=" M 151.30 68.31 C 156.29 66.38 164.69 61.78 163.40 72.25 C 165.36 68.78 169.67 68.90 172.23 71.70 C 169.46 74.06 161.74 72.69 163.79 78.03 C 163.80 83.44 156.71 82.94 153.26 81.02 C 151.64 85.21 148.93 88.53 145.38 91.20 C 142.94 90.16 141.18 88.10 138.88 86.83 C 139.64 89.73 141.95 91.82 143.71 94.13 C 142.51 97.01 144.96 99.39 146.29 101.70 C 142.61 99.98 139.42 96.52 140.61 92.27 C 137.79 91.10 134.93 90.02 132.05 89.03 C 127.06 91.47 122.53 95.60 119.78 99.87 C 113.78 98.62 120.12 93.51 121.16 90.27 C 116.94 92.74 115.56 86.14 111.86 87.74 C 105.18 90.19 109.49 96.87 114.33 98.63 C 115.65 104.40 124.02 104.24 121.77 110.53 C 118.94 111.31 116.27 114.38 113.22 113.00 C 113.96 109.68 119.08 100.70 112.09 102.70 C 111.40 102.13 110.70 101.56 110.01 101.01 C 107.23 97.70 106.21 92.25 101.40 91.43 C 98.88 88.93 102.28 85.49 102.86 82.71 C 103.45 81.55 103.97 80.36 104.47 79.16 C 105.60 76.29 107.12 72.36 110.65 75.05 C 110.33 77.66 108.72 80.38 110.14 82.92 C 113.59 83.38 113.58 78.52 114.60 76.23 C 116.23 75.43 117.27 74.14 117.00 72.23 C 120.80 77.04 119.68 83.73 120.32 89.38 C 125.31 84.48 120.21 77.06 123.95 71.71 C 124.74 76.40 124.82 81.17 125.12 85.91 C 128.02 85.12 130.96 84.40 133.99 84.79 C 133.92 82.51 133.44 80.27 133.07 78.03 C 136.69 80.65 136.09 76.53 136.05 73.81 C 138.97 73.89 141.68 75.95 144.51 75.68 C 146.05 72.62 148.46 70.19 151.30 68.31 Z" />
<path fill="#7e5a42" d=" M 80.69 96.80 C 87.42 88.20 91.42 76.85 96.73 67.21 C 97.66 69.05 98.88 71.69 101.36 70.43 C 104.86 68.79 100.49 74.60 103.03 74.03 C 107.14 74.52 106.20 67.96 109.81 67.93 C 108.03 72.27 112.89 73.18 114.60 76.23 C 113.58 78.52 113.59 83.38 110.14 82.92 C 108.72 80.38 110.33 77.66 110.65 75.05 C 107.12 72.36 105.60 76.29 104.47 79.16 C 102.38 76.52 98.90 76.77 101.06 72.05 C 96.10 72.69 93.55 76.50 93.09 81.16 C 92.60 82.03 92.11 82.91 91.62 83.79 C 88.65 85.41 85.28 92.98 90.67 92.57 C 93.14 91.82 92.31 96.11 94.69 95.95 C 94.99 90.40 98.61 85.93 102.86 82.71 C 102.28 85.49 98.88 88.93 101.40 91.43 C 106.21 92.25 107.23 97.70 110.01 101.01 C 108.02 99.71 106.02 98.43 104.02 97.17 C 100.11 103.43 101.68 111.67 96.70 117.55 C 94.97 122.78 90.89 117.11 90.72 114.07 C 86.65 115.32 86.54 121.81 81.85 121.04 C 83.11 117.22 86.15 114.28 89.69 112.50 C 90.99 109.94 87.60 109.08 86.22 107.65 C 86.25 105.69 86.73 103.77 86.93 101.82 C 81.89 105.28 72.89 109.41 75.09 116.36 C 73.89 119.83 76.06 124.06 72.84 126.81 C 70.81 127.75 71.11 125.35 70.65 124.10 C 68.81 124.75 67.07 125.66 65.22 126.28 C 67.49 122.81 66.09 118.66 66.84 114.82 C 64.55 115.88 62.71 118.00 60.04 118.15 C 60.50 111.81 65.61 107.43 66.88 101.79 C 68.88 97.65 73.70 95.93 76.22 92.12 C 77.55 91.68 81.47 89.75 79.53 92.58 C 76.78 96.26 73.46 99.62 72.03 104.11 C 76.29 103.78 79.17 100.56 80.69 96.80 Z" />
<path fill="#49594e" d=" M 248.19 70.04 L 249.18 69.58 C 250.38 81.77 248.29 94.48 247.00 106.77 C 249.06 108.56 251.93 108.48 254.48 109.22 C 250.91 110.09 247.29 109.51 243.94 108.20 C 243.63 104.87 244.02 101.73 246.15 99.16 C 248.58 89.91 246.57 79.58 248.19 70.04 Z" />
<path fill="#88abaf" d=" M 236.00 87.99 C 236.13 82.32 235.65 76.57 237.02 71.00 C 236.86 76.67 237.31 82.41 236.00 87.99 Z" />
<path fill="#997d65" d=" M 93.09 81.16 C 93.55 76.50 96.10 72.69 101.06 72.05 C 98.90 76.77 102.38 76.52 104.47 79.16 C 103.97 80.36 103.45 81.55 102.86 82.71 C 98.61 85.93 94.99 90.40 94.69 95.95 C 92.31 96.11 93.14 91.82 90.67 92.57 C 85.28 92.98 88.65 85.41 91.62 83.79 C 91.97 85.93 92.45 88.06 93.17 90.11 C 96.23 85.99 99.12 81.15 99.05 75.86 C 96.34 76.65 95.71 80.04 93.09 81.16 Z" />
<path fill="#534028" d=" M 163.79 78.03 C 161.74 72.69 169.46 74.06 172.23 71.70 C 175.24 75.91 178.45 79.85 182.49 83.20 C 182.06 86.61 184.22 89.21 186.90 91.10 C 187.73 92.68 188.46 94.31 189.18 95.95 C 185.49 94.75 182.43 89.40 178.30 92.26 C 173.47 95.13 171.97 87.36 166.94 88.02 C 169.65 86.14 172.96 81.56 167.38 82.35 C 163.24 89.69 155.01 90.18 147.76 92.29 C 147.16 92.02 145.97 91.48 145.38 91.20 C 148.93 88.53 151.64 85.21 153.26 81.02 C 156.71 82.94 163.80 83.44 163.79 78.03 Z" />
<path fill="#849d95" d=" M 241.21 88.23 C 240.90 83.09 240.85 77.90 241.89 72.83 C 242.04 77.97 241.99 83.13 241.21 88.23 Z" />
<path fill="#757e7b" d=" M 53.92 85.01 C 58.31 83.85 53.88 76.96 57.67 74.96 C 58.61 76.64 59.50 78.35 60.20 80.14 C 60.45 81.15 60.71 82.17 60.97 83.18 C 58.11 91.52 53.40 98.86 47.22 105.20 C 46.89 103.41 44.82 100.21 47.83 99.78 C 48.37 99.52 49.44 99.01 49.98 98.76 C 49.21 92.38 46.99 86.06 48.83 79.54 C 50.03 81.86 50.26 86.22 53.92 85.01 Z" />
<path fill="#c0a58d" d=" M 93.09 81.16 C 95.71 80.04 96.34 76.65 99.05 75.86 C 99.12 81.15 96.23 85.99 93.17 90.11 C 92.45 88.06 91.97 85.93 91.62 83.79 C 92.11 82.91 92.60 82.03 93.09 81.16 Z" />
<path fill="#6b5944" d=" M 167.38 82.35 C 172.96 81.56 169.65 86.14 166.94 88.02 C 163.24 89.68 160.20 92.48 156.50 94.13 C 154.64 90.42 150.60 93.91 147.76 92.29 C 155.01 90.18 163.24 89.69 167.38 82.35 Z" />
<path fill="#8d8a7e" d=" M 188.10 84.74 C 191.68 87.89 187.78 93.27 191.01 97.05 C 190.55 96.78 189.64 96.23 189.18 95.95 C 188.46 94.31 187.73 92.68 186.90 91.10 C 185.78 88.79 186.54 86.60 188.10 84.74 Z" />
<path fill="#94c5c1" d=" M 224.23 101.24 C 223.83 96.08 224.04 90.89 224.78 85.77 C 225.16 90.93 224.92 96.11 224.23 101.24 Z" />
<path fill="#7d553e" d=" M 111.86 87.74 C 115.56 86.14 116.94 92.74 121.16 90.27 C 120.12 93.51 113.78 98.62 119.78 99.87 C 122.53 95.60 127.06 91.47 132.05 89.03 C 134.93 90.02 137.79 91.10 140.61 92.27 C 139.42 96.52 142.61 99.98 146.29 101.70 C 151.32 104.16 151.04 110.53 153.00 115.02 C 153.03 120.37 160.22 121.69 160.14 126.87 C 156.79 126.98 153.46 126.97 150.11 127.12 C 150.83 125.39 151.38 123.48 150.17 121.82 C 147.29 116.80 149.21 110.82 147.73 105.44 C 142.09 103.34 138.09 98.81 132.98 95.89 C 127.54 98.29 127.45 110.56 135.25 107.44 C 132.00 116.64 117.45 110.69 114.55 119.68 C 110.12 119.92 111.44 113.07 111.74 109.88 L 112.09 109.30 C 114.14 107.21 114.01 104.82 112.09 102.70 C 119.08 100.70 113.96 109.68 113.22 113.00 C 116.27 114.38 118.94 111.31 121.77 110.53 C 124.02 104.24 115.65 104.40 114.33 98.63 C 109.49 96.87 105.18 90.19 111.86 87.74 Z" />
<path fill="#8b7361" d=" M 138.88 86.83 C 141.18 88.10 142.94 90.16 145.38 91.20 C 145.97 91.48 147.16 92.02 147.76 92.29 C 150.60 93.91 154.64 90.42 156.50 94.13 C 155.89 94.39 154.66 94.92 154.05 95.18 C 150.57 95.06 147.10 94.89 143.71 94.13 C 141.95 91.82 139.64 89.73 138.88 86.83 Z" />
<path fill="#3b2514" d=" M 166.94 88.02 C 171.97 87.36 173.47 95.13 178.30 92.26 C 182.43 89.40 185.49 94.75 189.18 95.95 C 189.64 96.23 190.55 96.78 191.01 97.05 C 192.28 99.26 195.00 101.30 194.15 104.11 C 192.65 102.26 191.38 98.65 188.38 100.24 C 186.43 102.85 182.63 108.59 179.81 103.85 C 188.44 98.88 172.83 93.73 169.10 97.26 C 168.10 103.58 174.88 98.24 178.08 98.94 C 178.48 103.55 171.18 101.18 170.06 104.13 C 169.05 107.77 174.01 105.22 175.92 104.95 C 172.66 109.65 181.11 103.84 179.57 107.64 C 178.21 111.81 185.20 111.73 186.60 115.10 C 185.71 119.95 171.49 122.96 174.40 114.75 C 170.73 110.00 163.69 105.63 161.94 100.22 C 151.61 98.12 157.40 108.41 162.19 110.90 C 164.18 112.58 162.21 114.49 160.09 114.43 C 160.10 117.67 163.36 119.81 164.27 122.86 C 160.48 116.77 152.59 111.32 153.49 103.40 C 151.92 100.61 151.83 97.65 154.05 95.18 C 154.66 94.92 155.89 94.39 156.50 94.13 C 160.20 92.48 163.24 89.68 166.94 88.02 Z" />
<path fill="#93b4b6" d=" M 235.27 104.14 C 235.20 98.75 234.59 93.28 236.00 87.99 C 235.86 93.37 236.31 98.81 235.27 104.14 Z" />
<path fill="#718987" d=" M 243.94 108.20 C 237.18 108.92 241.47 96.14 240.75 92.78 C 240.48 97.84 240.42 103.38 246.15 99.16 C 244.02 101.73 243.63 104.87 243.94 108.20 Z" />
<path fill="#583320" d=" M 143.71 94.13 C 147.10 94.89 150.57 95.06 154.05 95.18 C 151.83 97.65 151.92 100.61 153.49 103.40 C 152.59 111.32 160.48 116.77 164.27 122.86 C 169.33 131.67 151.61 124.66 148.82 129.64 C 142.71 129.79 135.27 126.75 130.11 131.23 C 129.55 136.39 138.43 133.33 141.07 134.98 C 145.91 134.84 149.33 140.97 154.21 139.23 C 154.65 139.17 155.54 139.06 155.98 139.00 C 155.96 139.48 155.92 140.42 155.90 140.89 C 155.71 141.95 155.50 143.00 155.29 144.06 C 153.01 149.00 148.36 151.89 143.29 153.34 C 142.41 153.19 140.65 152.91 139.77 152.77 C 144.73 149.99 153.85 149.00 153.10 141.40 C 146.30 142.94 141.15 135.92 134.20 138.88 C 128.09 139.35 116.71 145.76 118.13 134.66 C 119.80 133.07 124.29 132.61 122.16 129.62 C 125.70 128.09 129.60 127.82 133.30 126.85 C 136.41 126.90 139.56 126.96 142.68 127.05 C 145.09 128.12 147.65 127.84 150.11 127.12 C 153.46 126.97 156.79 126.98 160.14 126.87 C 160.22 121.69 153.03 120.37 153.00 115.02 C 151.04 110.53 151.32 104.16 146.29 101.70 C 144.96 99.39 142.51 97.01 143.71 94.13 Z" />
<path fill="#8e6751" d=" M 135.25 107.44 C 127.45 110.56 127.54 98.29 132.98 95.89 C 138.09 98.81 142.09 103.34 147.73 105.44 C 149.21 110.82 147.29 116.80 150.17 121.82 C 151.38 123.48 150.83 125.39 150.11 127.12 C 147.65 127.84 145.09 128.12 142.68 127.05 C 150.33 123.79 143.41 116.41 144.82 110.34 C 141.32 104.17 134.83 110.33 134.07 115.10 C 133.16 117.35 132.03 121.30 129.01 119.01 C 125.76 116.17 117.39 121.45 121.32 124.69 C 125.03 127.17 130.40 123.14 133.30 126.85 C 129.60 127.82 125.70 128.09 122.16 129.62 C 115.16 132.30 111.30 139.52 102.41 135.69 C 98.95 130.50 90.64 128.90 85.70 132.68 C 81.82 135.78 76.17 134.55 72.16 137.21 C 70.92 140.74 76.03 138.00 77.95 138.16 C 76.93 142.03 75.85 145.90 75.32 149.87 C 80.84 153.70 88.95 148.26 94.83 152.16 C 96.59 153.38 98.32 151.29 100.06 150.91 C 98.54 156.19 93.15 157.92 88.36 158.91 C 83.89 155.05 78.23 151.66 72.24 151.10 C 70.10 152.57 72.88 155.18 73.02 157.15 C 63.90 156.19 74.83 142.92 67.96 139.17 C 67.50 139.11 66.58 138.98 66.12 138.91 C 68.05 137.44 72.15 137.23 71.97 134.23 C 70.16 133.84 68.35 133.39 66.50 133.33 C 65.52 135.24 64.37 139.36 61.48 137.50 C 57.13 132.70 51.50 144.98 58.33 144.70 C 58.26 145.21 58.13 146.22 58.07 146.72 C 54.69 152.83 61.13 148.29 62.07 152.89 C 59.06 152.98 55.86 152.63 52.99 153.83 C 50.14 154.84 47.41 154.24 44.78 153.13 C 42.21 149.92 46.73 149.85 48.89 149.06 C 47.84 147.22 45.90 144.99 49.30 145.10 C 55.29 143.38 41.03 145.44 44.86 141.02 C 49.86 140.90 46.98 136.84 43.86 136.08 C 47.53 135.16 51.92 134.69 54.19 131.25 C 56.15 121.17 57.93 108.44 66.88 101.79 C 65.61 107.43 60.50 111.81 60.04 118.15 C 62.71 118.00 64.55 115.88 66.84 114.82 C 66.09 118.66 67.49 122.81 65.22 126.28 C 67.07 125.66 68.81 124.75 70.65 124.10 C 71.11 125.35 70.81 127.75 72.84 126.81 C 76.06 124.06 73.89 119.83 75.09 116.36 C 72.89 109.41 81.89 105.28 86.93 101.82 C 86.73 103.77 86.25 105.69 86.22 107.65 C 87.60 109.08 90.99 109.94 89.69 112.50 C 86.15 114.28 83.11 117.22 81.85 121.04 C 86.54 121.81 86.65 115.32 90.72 114.07 C 90.89 117.11 94.97 122.78 96.70 117.55 C 101.68 111.67 100.11 103.43 104.02 97.17 C 106.02 98.43 108.02 99.71 110.01 101.01 C 110.70 101.56 111.40 102.13 112.09 102.70 C 114.01 104.82 114.14 107.21 112.09 109.30 C 110.95 106.01 109.05 102.95 105.16 103.00 C 101.84 106.84 105.48 114.05 100.08 116.13 C 97.55 118.29 94.65 126.26 99.86 126.27 C 104.61 127.02 105.52 134.43 110.95 133.06 C 112.50 126.11 104.70 114.17 111.74 109.88 C 111.44 113.07 110.12 119.92 114.55 119.68 C 117.45 110.69 132.00 116.64 135.25 107.44 Z" />
<path fill="#584131" d=" M 169.10 97.26 C 172.83 93.73 188.44 98.88 179.81 103.85 C 178.50 104.18 177.20 104.54 175.92 104.95 C 174.01 105.22 169.05 107.77 170.06 104.13 C 171.18 101.18 178.48 103.55 178.08 98.94 C 174.88 98.24 168.10 103.58 169.10 97.26 Z" />
<path fill="#584a3d" d=" M 41.92 110.66 C 42.14 105.44 37.86 95.95 48.07 98.95 L 47.83 99.78 C 44.82 100.21 46.89 103.41 47.22 105.20 C 48.49 111.68 41.46 115.21 35.82 113.72 C 36.54 111.10 39.22 110.46 41.92 110.66 Z" />
<path fill="#27130a" d=" M 162.19 110.90 C 157.40 108.41 151.61 98.12 161.94 100.22 C 163.69 105.63 170.73 110.00 174.40 114.75 C 171.49 122.96 185.71 119.95 186.60 115.10 C 185.20 111.73 178.21 111.81 179.57 107.64 C 181.11 103.84 172.66 109.65 175.92 104.95 C 177.20 104.54 178.50 104.18 179.81 103.85 C 182.63 108.59 186.43 102.85 188.38 100.24 C 191.38 98.65 192.65 102.26 194.15 104.11 C 194.31 104.37 194.62 104.89 194.78 105.15 C 194.84 111.84 193.52 118.51 194.24 125.20 C 192.24 125.44 192.24 128.05 193.79 128.91 C 194.52 131.61 195.62 134.20 196.10 136.97 C 187.91 134.42 182.16 142.12 175.89 146.01 C 168.66 144.96 172.14 130.55 162.90 132.93 C 159.07 132.51 156.68 135.60 155.98 139.00 C 155.54 139.06 154.65 139.17 154.21 139.23 C 155.23 135.28 152.76 130.79 148.82 129.64 C 151.61 124.66 169.33 131.67 164.27 122.86 C 163.36 119.81 160.10 117.67 160.09 114.43 C 162.21 114.49 164.18 112.58 162.19 110.90 Z" />
<path fill="#9b6e5e" d=" M 105.16 103.00 C 109.05 102.95 110.95 106.01 112.09 109.30 L 111.74 109.88 C 104.70 114.17 112.50 126.11 110.95 133.06 C 105.52 134.43 104.61 127.02 99.86 126.27 C 94.65 126.26 97.55 118.29 100.08 116.13 C 105.48 114.05 101.84 106.84 105.16 103.00 Z" />
<path fill="#443629" d=" M 194.78 105.15 C 195.11 104.83 195.76 104.18 196.09 103.86 C 195.91 110.99 195.57 118.18 194.24 125.20 C 193.52 118.51 194.84 111.84 194.78 105.15 Z" />
<path fill="#85817a" d=" M 196.09 103.86 C 201.59 109.73 190.40 121.73 198.26 127.80 C 206.30 132.17 199.90 138.59 199.73 144.58 C 193.09 144.19 195.81 152.86 199.85 155.19 C 204.55 163.75 186.79 161.71 189.47 170.57 C 188.37 174.16 182.55 172.48 181.53 176.16 C 180.08 172.61 185.12 172.92 183.48 168.98 C 188.96 172.46 189.96 164.30 187.81 160.82 L 187.62 160.04 C 190.67 160.79 194.64 163.56 196.82 159.82 C 199.95 157.18 196.61 154.39 194.33 152.75 C 193.49 149.48 191.71 146.42 191.89 142.94 C 192.13 138.01 195.06 137.37 198.83 139.96 C 201.12 135.47 198.50 130.28 193.79 128.91 C 194.14 127.69 194.29 126.46 194.24 125.20 C 195.57 118.18 195.91 110.99 196.09 103.86 Z" />
<path fill="#91aeac" d=" M 223.98 108.10 C 228.20 108.22 231.76 106.12 235.27 104.14 C 233.88 108.61 227.94 110.39 223.84 109.02 L 223.98 108.10 Z" />
<path fill="#7c7660" d=" M 0.00 105.53 C 1.05 107.99 2.04 110.49 3.18 112.92 C 3.33 115.36 3.01 117.65 0.00 117.33 L 0.00 105.53 Z" />
<path fill="#9c6f5b" d=" M 134.07 115.10 C 134.83 110.33 141.32 104.17 144.82 110.34 C 143.41 116.41 150.33 123.79 142.68 127.05 C 139.56 126.96 136.41 126.90 133.30 126.85 C 130.40 123.14 125.03 127.17 121.32 124.69 C 117.39 121.45 125.76 116.17 129.01 119.01 C 132.03 121.30 133.16 117.35 134.07 115.10 Z" />
<path fill="#474138" d=" M 3.18 112.92 C 5.70 116.30 6.35 120.22 4.70 124.18 C 3.01 122.94 3.05 120.79 2.71 118.92 C 1.82 120.79 0.95 122.66 0.00 124.49 L 0.00 117.33 C 3.01 117.65 3.33 115.36 3.18 112.92 Z" />
<path fill="#4a4e3c" d=" M 243.20 115.80 C 242.28 108.59 255.96 115.27 260.00 112.99 L 260.00 151.52 C 258.50 150.30 255.33 149.55 256.19 147.04 C 257.89 141.28 253.85 136.09 252.28 130.78 C 250.99 128.10 249.97 123.53 245.41 126.03 C 244.69 131.83 243.33 137.51 242.26 143.25 L 242.23 142.24 C 241.44 133.40 243.94 124.62 243.20 115.80 Z" />
<path fill="#4a4033" d=" M 31.02 118.87 C 32.30 116.50 32.14 113.01 35.82 113.72 C 34.33 116.35 33.33 118.69 37.42 118.21 C 36.18 121.49 44.91 123.15 38.39 124.12 C 40.86 127.70 39.20 132.34 39.61 136.34 C 33.24 136.06 34.48 126.82 37.47 123.50 C 41.75 120.47 34.63 122.89 32.28 122.86 C 30.17 118.05 43.64 120.06 31.02 118.87 Z" />
<path fill="#667b76" d=" M 233.16 114.92 C 240.32 115.35 234.85 123.87 237.35 128.42 C 233.36 151.64 233.67 175.80 231.33 199.36 C 231.20 203.76 225.40 204.79 222.12 205.30 C 221.12 208.78 226.87 206.25 228.32 208.69 C 231.91 211.05 228.27 215.56 228.42 218.87 C 229.83 227.66 228.12 236.57 226.21 245.15 C 226.00 247.82 222.87 248.14 220.94 249.13 C 219.20 247.32 217.42 245.54 215.80 243.62 C 220.86 235.22 216.80 224.07 217.85 214.74 C 217.16 216.19 216.63 217.71 216.11 219.23 C 216.18 216.23 216.13 213.21 216.18 210.23 C 216.50 206.52 216.83 202.81 217.17 199.11 C 221.32 198.43 230.64 203.47 229.93 197.18 C 232.77 182.44 226.68 167.53 231.16 153.02 C 231.85 147.01 232.41 140.98 233.04 134.96 C 233.61 128.29 234.73 121.55 233.16 114.92 Z" />
<path fill="#6f8583" d=" M 240.37 116.39 C 240.60 114.59 242.06 115.47 243.20 115.80 C 243.94 124.62 241.44 133.40 242.23 142.24 C 241.19 142.51 240.15 142.75 239.10 142.96 C 239.61 134.10 239.13 125.22 240.37 116.39 Z" />
<path fill="#4d3f36" d=" M 193.79 128.91 C 192.24 128.05 192.24 125.44 194.24 125.20 C 194.29 126.46 194.14 127.69 193.79 128.91 Z" />
<path fill="#353b2c" d=" M 245.41 126.03 C 249.97 123.53 250.99 128.10 252.28 130.78 C 253.85 136.09 257.89 141.28 256.19 147.04 C 255.33 149.55 258.50 150.30 260.00 151.52 L 260.00 153.90 C 258.67 154.28 257.33 154.65 256.00 155.01 C 251.75 156.68 246.54 153.38 243.20 157.12 C 242.19 158.15 241.76 157.84 241.91 156.19 C 241.99 151.87 242.10 147.55 242.26 143.25 C 243.33 137.51 244.69 131.83 245.41 126.03 Z" />
<path fill="#7a5545" d=" M 130.11 131.23 C 135.27 126.75 142.71 129.79 148.82 129.64 C 152.76 130.79 155.23 135.28 154.21 139.23 C 149.33 140.97 145.91 134.84 141.07 134.98 C 138.43 133.33 129.55 136.39 130.11 131.23 Z" />
<path fill="#5b3523" d=" M 193.79 128.91 C 198.50 130.28 201.12 135.47 198.83 139.96 C 195.06 137.37 192.13 138.01 191.89 142.94 C 189.61 145.56 186.99 147.72 183.13 147.24 C 183.50 150.46 184.40 153.60 184.80 156.81 C 182.12 158.65 179.06 158.37 177.76 155.17 C 170.44 149.43 168.73 139.87 162.90 132.93 C 172.14 130.55 168.66 144.96 175.89 146.01 C 182.16 142.12 187.91 134.42 196.10 136.97 C 195.62 134.20 194.52 131.61 193.79 128.91 Z" />
<path fill="#3a1e12" d=" M 102.41 135.69 C 111.30 139.52 115.16 132.30 122.16 129.62 C 124.29 132.61 119.80 133.07 118.13 134.66 C 113.97 138.63 116.89 145.77 120.58 149.15 C 124.91 154.55 133.53 151.16 138.20 153.95 C 133.71 154.07 129.24 154.07 124.75 154.22 C 115.53 152.75 116.08 137.87 106.27 140.07 C 106.15 140.75 105.92 142.12 105.80 142.81 C 104.83 145.26 103.66 147.65 102.91 150.19 C 103.47 140.21 91.33 143.55 85.21 145.30 C 82.72 145.95 76.53 150.56 78.20 145.25 C 83.77 143.03 89.38 138.78 95.65 139.41 C 98.45 140.36 95.91 136.48 96.09 135.05 C 97.67 135.21 100.83 135.53 102.41 135.69 Z" />
<path fill="#68483a" d=" M 85.70 132.68 C 90.64 128.90 98.95 130.50 102.41 135.69 C 100.83 135.53 97.67 135.21 96.09 135.05 C 95.91 136.48 98.45 140.36 95.65 139.41 C 89.38 138.78 83.77 143.03 78.20 145.25 C 76.53 150.56 82.72 145.95 85.21 145.30 C 91.33 143.55 103.47 140.21 102.91 150.19 C 102.67 151.44 102.43 152.70 102.09 153.94 C 93.92 162.10 80.37 162.94 69.97 158.91 C 67.69 155.04 67.89 159.40 67.68 161.81 C 66.69 165.67 67.46 169.50 68.28 173.27 C 64.68 174.56 61.83 174.27 63.35 169.83 C 61.81 166.85 55.16 166.00 56.41 161.57 C 58.19 157.38 57.19 154.27 52.99 153.83 C 55.86 152.63 59.06 152.98 62.07 152.89 C 61.13 148.29 54.69 152.83 58.07 146.72 C 61.69 147.92 64.07 150.81 66.88 153.16 C 66.63 148.46 66.63 143.73 67.96 139.17 C 74.83 142.92 63.90 156.19 73.02 157.15 C 77.49 160.02 83.34 160.73 88.36 158.91 C 93.15 157.92 98.54 156.19 100.06 150.91 C 98.32 151.29 96.59 153.38 94.83 152.16 C 88.95 148.26 80.84 153.70 75.32 149.87 C 75.85 145.90 76.93 142.03 77.95 138.16 C 76.03 138.00 70.92 140.74 72.16 137.21 C 76.17 134.55 81.82 135.78 85.70 132.68 Z" />
<path fill="#67503c" d=" M 66.50 133.33 C 68.35 133.39 70.16 133.84 71.97 134.23 C 72.15 137.23 68.05 137.44 66.12 138.91 C 64.03 139.99 61.81 140.93 60.03 142.52 C 61.78 143.95 64.94 144.45 65.09 147.14 C 62.76 146.53 60.65 145.32 58.33 144.70 C 51.50 144.98 57.13 132.70 61.48 137.50 C 64.37 139.36 65.52 135.24 66.50 133.33 Z" />
<path fill="#80503e" d=" M 155.98 139.00 C 156.68 135.60 159.07 132.51 162.90 132.93 C 168.73 139.87 170.44 149.43 177.76 155.17 C 179.06 158.37 182.12 158.65 184.80 156.81 C 184.40 153.60 183.50 150.46 183.13 147.24 C 186.99 147.72 189.61 145.56 191.89 142.94 C 191.71 146.42 193.49 149.48 194.33 152.75 C 190.55 148.21 186.46 156.46 187.62 160.04 L 187.81 160.82 C 185.06 160.88 186.60 163.81 186.35 165.55 C 184.84 166.16 183.53 167.21 183.48 168.98 C 185.12 172.92 180.08 172.61 181.53 176.16 C 182.23 179.02 181.31 182.06 179.44 184.29 C 178.58 183.68 177.72 183.06 176.89 182.43 C 179.93 181.54 180.72 177.48 179.98 174.79 C 176.04 175.03 176.29 179.64 176.89 182.43 C 173.52 174.75 169.82 186.19 171.63 190.15 C 170.80 192.75 170.13 195.40 170.03 198.14 C 169.86 199.85 169.64 201.57 169.36 203.27 C 169.19 200.08 169.10 196.93 168.83 193.77 C 157.69 210.89 170.65 231.80 163.06 250.02 C 162.22 253.77 159.71 256.49 156.64 258.60 C 156.47 265.07 150.89 268.93 148.09 274.20 C 144.92 276.73 141.74 279.31 138.16 281.25 C 145.28 272.26 137.55 257.11 147.89 249.90 C 153.22 246.45 152.93 239.81 155.77 234.84 C 155.78 231.73 155.49 228.07 152.73 226.13 C 148.51 225.20 146.81 229.97 144.22 232.24 C 141.87 234.88 141.10 227.82 138.15 229.26 C 129.95 232.59 118.67 232.12 113.63 240.50 C 110.68 247.20 107.47 235.84 103.82 234.03 C 100.50 228.26 96.93 222.56 92.24 217.79 C 91.15 216.48 90.11 215.13 89.02 213.82 C 88.95 216.62 88.90 219.42 88.87 222.22 C 88.15 219.10 88.83 215.20 86.27 212.79 C 85.90 211.87 85.53 210.96 85.18 210.04 L 84.92 209.31 C 88.58 208.80 85.91 203.82 85.96 201.04 C 82.92 193.67 76.49 186.34 77.82 177.91 C 88.77 180.58 90.90 169.44 97.72 164.81 L 97.80 165.85 C 97.88 167.15 98.01 168.44 98.18 169.74 C 104.13 169.04 110.59 171.10 116.14 168.16 C 118.85 166.41 121.63 168.30 124.33 169.00 C 123.58 173.46 116.72 168.70 115.55 172.48 C 114.93 175.70 114.46 179.75 110.39 179.54 C 104.68 181.75 101.72 173.80 96.20 173.88 C 96.10 179.93 91.42 190.57 102.06 187.04 C 98.44 188.02 94.34 187.37 90.92 189.08 C 93.02 193.39 99.94 189.88 103.79 191.10 C 104.49 198.89 114.93 196.57 119.06 200.81 C 115.83 203.07 112.60 205.52 108.90 206.95 C 105.63 206.59 103.25 203.57 100.03 202.77 C 100.19 207.48 98.82 213.58 103.23 216.86 C 106.33 216.71 109.19 215.25 112.09 214.26 C 117.04 217.70 119.93 223.66 125.15 226.66 C 135.42 225.28 141.33 215.83 150.80 212.80 C 159.54 204.58 163.42 191.82 162.98 180.02 C 162.65 167.50 167.35 154.44 162.70 142.32 C 161.45 139.45 158.28 139.67 155.90 140.89 C 155.92 140.42 155.96 139.48 155.98 139.00 Z" />
<path fill="#724d41" d=" M 120.58 149.15 C 116.89 145.77 113.97 138.63 118.13 134.66 C 116.71 145.76 128.09 139.35 134.20 138.88 C 133.05 143.23 127.72 149.19 123.19 145.81 C 121.14 143.94 121.27 147.97 120.58 149.15 Z" />
<path fill="#698186" d=" M 220.10 138.22 C 220.88 132.00 229.01 136.26 233.04 134.96 C 232.41 140.98 231.85 147.01 231.16 153.02 C 226.68 167.53 232.77 182.44 229.93 197.18 C 227.65 192.44 226.89 184.54 222.28 181.81 C 222.88 184.60 221.90 194.01 216.75 190.87 C 218.32 173.34 218.94 155.76 220.10 138.22 Z" />
<path fill="#493a29" d=" M 39.61 136.34 C 41.02 136.24 42.44 136.15 43.86 136.08 C 46.98 136.84 49.86 140.90 44.86 141.02 C 48.21 137.08 42.18 138.00 39.61 136.34 Z" />
<path fill="#875f53" d=" M 134.20 138.88 C 141.15 135.92 146.30 142.94 153.10 141.40 C 153.85 149.00 144.73 149.99 139.77 152.77 C 140.65 152.91 142.41 153.19 143.29 153.34 C 140.91 159.82 129.22 158.84 124.75 154.22 C 129.24 154.07 133.71 154.07 138.20 153.95 C 133.53 151.16 124.91 154.55 120.58 149.15 C 121.27 147.97 121.14 143.94 123.19 145.81 C 127.72 149.19 133.05 143.23 134.20 138.88 Z" />
<path fill="#28180f" d=" M 66.12 138.91 C 66.58 138.98 67.50 139.11 67.96 139.17 C 66.63 143.73 66.63 148.46 66.88 153.16 C 64.07 150.81 61.69 147.92 58.07 146.72 C 58.13 146.22 58.26 145.21 58.33 144.70 C 60.65 145.32 62.76 146.53 65.09 147.14 C 64.94 144.45 61.78 143.95 60.03 142.52 C 61.81 140.93 64.03 139.99 66.12 138.91 Z" />
<path fill="#9d695a" d=" M 106.27 140.07 C 116.08 137.87 115.53 152.75 124.75 154.22 C 129.22 158.84 140.91 159.82 143.29 153.34 C 148.36 151.89 153.01 149.00 155.29 144.06 C 157.64 145.78 161.18 147.46 160.91 150.89 C 158.08 156.98 154.56 162.92 153.65 169.70 C 144.93 173.53 136.80 163.97 127.99 163.96 C 126.58 168.61 132.78 168.98 134.49 172.31 C 132.77 176.71 138.88 178.88 137.00 182.83 C 131.42 183.41 125.81 183.65 120.25 184.39 C 113.99 184.76 118.54 177.17 120.23 174.25 C 122.08 173.35 128.78 170.14 124.33 169.00 C 121.63 168.30 118.85 166.41 116.14 168.16 C 110.59 171.10 104.13 169.04 98.18 169.74 C 98.01 168.44 97.88 167.15 97.80 165.85 C 99.68 167.54 100.18 166.21 100.34 164.21 C 105.91 164.55 112.38 167.58 116.74 162.52 C 119.02 155.36 111.19 151.11 110.53 144.38 C 110.56 141.23 107.86 142.17 105.80 142.81 C 105.92 142.12 106.15 140.75 106.27 140.07 Z" />
<path fill="#8e5b48" d=" M 155.90 140.89 C 158.28 139.67 161.45 139.45 162.70 142.32 C 167.35 154.44 162.65 167.50 162.98 180.02 C 163.42 191.82 159.54 204.58 150.80 212.80 C 141.33 215.83 135.42 225.28 125.15 226.66 C 119.93 223.66 117.04 217.70 112.09 214.26 C 109.19 215.25 106.33 216.71 103.23 216.86 C 98.82 213.58 100.19 207.48 100.03 202.77 C 103.25 203.57 105.63 206.59 108.90 206.95 C 112.60 205.52 115.83 203.07 119.06 200.81 C 114.93 196.57 104.49 198.89 103.79 191.10 C 104.52 191.12 105.98 191.14 106.71 191.16 C 110.07 199.56 121.32 194.59 128.07 196.10 C 127.99 204.08 116.51 201.40 113.95 207.98 C 111.62 210.67 116.36 212.83 118.65 211.58 C 124.98 209.55 128.99 219.41 135.28 216.29 C 144.11 209.72 147.29 196.81 142.65 187.16 C 138.21 185.35 136.35 189.86 133.38 191.74 C 131.95 190.24 130.51 188.75 128.83 187.54 C 134.87 183.71 147.42 187.68 147.97 178.05 C 147.33 174.65 136.85 167.04 140.66 176.49 C 142.90 180.12 141.06 182.53 137.00 182.83 C 138.88 178.88 132.77 176.71 134.49 172.31 C 132.78 168.98 126.58 168.61 127.99 163.96 C 136.80 163.97 144.93 173.53 153.65 169.70 C 154.56 162.92 158.08 156.98 160.91 150.89 C 161.18 147.46 157.64 145.78 155.29 144.06 C 155.50 143.00 155.71 141.95 155.90 140.89 Z" />
<path fill="#b5867c" d=" M 105.80 142.81 C 107.86 142.17 110.56 141.23 110.53 144.38 C 111.19 151.11 119.02 155.36 116.74 162.52 C 112.38 167.58 105.91 164.55 100.34 164.21 C 100.18 166.21 99.68 167.54 97.80 165.85 L 97.72 164.81 C 100.95 162.12 101.17 157.76 102.09 153.94 C 102.43 152.70 102.67 151.44 102.91 150.19 C 103.66 147.65 104.83 145.26 105.80 142.81 Z" />
<path fill="#090a11" d=" M 0.00 144.82 C 5.01 146.95 10.14 143.44 14.93 145.18 C 13.49 149.41 14.69 153.05 19.79 151.55 C 24.96 150.85 22.28 160.12 27.12 160.93 C 35.83 162.43 44.57 158.97 53.27 158.69 C 54.43 162.34 57.44 166.51 52.95 168.79 C 61.53 168.27 62.56 175.67 65.28 181.71 C 66.87 188.88 65.01 196.53 67.39 203.80 C 68.05 210.25 64.54 219.04 72.49 222.29 C 77.26 223.79 73.93 228.44 71.94 230.89 C 67.98 236.46 69.18 243.60 69.05 250.06 C 67.14 251.55 65.27 253.13 63.90 255.16 C 62.41 255.26 59.44 255.46 57.95 255.56 C 55.53 256.28 53.23 257.33 50.94 258.39 C 48.95 247.89 52.45 237.39 53.01 226.90 C 52.59 227.00 51.75 227.21 51.33 227.32 C 46.45 239.39 41.46 251.40 37.79 263.92 C 34.78 264.03 31.61 263.54 28.77 264.79 C 19.68 268.39 10.16 271.14 1.76 276.29 C 1.32 276.52 0.44 276.96 0.00 277.18 L 0.00 251.46 C 1.38 246.13 -0.60 239.59 3.20 235.04 C 6.84 234.68 10.34 237.39 13.92 236.03 C 19.94 234.27 12.21 220.22 21.89 224.08 C 27.78 224.53 23.61 232.34 25.06 235.93 C 25.00 240.67 37.22 235.49 32.12 239.88 C 35.34 239.91 42.26 243.90 38.97 236.01 C 39.54 230.82 37.26 220.02 44.90 218.72 C 55.47 213.16 47.89 200.16 50.54 190.97 C 47.66 184.66 45.28 176.78 38.42 173.66 C 30.16 169.22 17.21 169.29 14.65 158.34 C 9.90 154.86 6.31 149.38 0.00 148.84 L 0.00 144.82 Z" />
<path fill="#6a7c7f" d=" M 239.15 148.01 C 242.97 147.49 240.11 153.61 241.03 155.90 C 240.95 160.85 241.10 165.83 240.78 170.78 C 239.16 181.87 240.94 193.17 238.85 204.21 C 236.92 204.24 235.20 203.14 235.38 201.05 C 237.12 183.41 238.22 165.71 239.15 148.01 Z" />
<path fill="#070c1e" d=" M 0.00 148.84 C 6.31 149.38 9.90 154.86 14.65 158.34 C 17.21 169.29 30.16 169.22 38.42 173.66 C 45.28 176.78 47.66 184.66 50.54 190.97 C 47.89 200.16 55.47 213.16 44.90 218.72 C 37.26 220.02 39.54 230.82 38.97 236.01 C 42.26 243.90 35.34 239.91 32.12 239.88 C 37.22 235.49 25.00 240.67 25.06 235.93 C 23.61 232.34 27.78 224.53 21.89 224.08 C 12.21 220.22 19.94 234.27 13.92 236.03 C 10.34 237.39 6.84 234.68 3.20 235.04 C -0.60 239.59 1.38 246.13 0.00 251.46 L 0.00 148.84 Z" />
<path fill="#b58d82" d=" M 72.24 151.10 C 78.23 151.66 83.89 155.05 88.36 158.91 C 83.34 160.73 77.49 160.02 73.02 157.15 C 72.88 155.18 70.10 152.57 72.24 151.10 Z" />
<path fill="#3e2d21" d=" M 187.62 160.04 C 186.46 156.46 190.55 148.21 194.33 152.75 C 196.61 154.39 199.95 157.18 196.82 159.82 C 194.64 163.56 190.67 160.79 187.62 160.04 Z" />
<path fill="#332b26" d=" M 44.78 153.13 C 47.41 154.24 50.14 154.84 52.99 153.83 C 57.19 154.27 58.19 157.38 56.41 161.57 C 55.16 166.00 61.81 166.85 63.35 169.83 C 61.83 174.27 64.68 174.56 68.28 173.27 L 69.23 173.13 C 63.31 178.26 70.68 183.65 67.78 189.03 C 68.52 186.16 67.67 183.46 65.28 181.71 C 62.56 175.67 61.53 168.27 52.95 168.79 C 57.44 166.51 54.43 162.34 53.27 158.69 C 53.39 153.58 45.61 158.91 44.78 153.13 Z" />
<path fill="#976158" d=" M 69.97 158.91 C 80.37 162.94 93.92 162.10 102.09 153.94 C 101.17 157.76 100.95 162.12 97.72 164.81 C 90.90 169.44 88.77 180.58 77.82 177.91 C 77.89 175.28 79.83 172.35 78.31 169.91 C 75.65 166.15 71.59 163.33 69.97 158.91 Z" />
<path fill="#5f6258" d=" M 256.00 155.01 C 257.33 154.65 258.67 154.28 260.00 153.90 L 260.00 178.41 C 258.49 177.62 256.99 176.82 255.55 175.92 C 255.93 168.95 256.06 161.98 256.00 155.01 Z" />
<path fill="#444534" d=" M 243.20 157.12 C 246.54 153.38 251.75 156.68 256.00 155.01 C 256.06 161.98 255.93 168.95 255.55 175.92 C 257.00 182.42 247.90 182.80 243.81 180.38 C 238.96 180.12 241.57 174.04 240.78 170.78 C 241.10 165.83 240.95 160.85 241.03 155.90 L 241.91 156.19 C 241.76 157.84 242.19 158.15 243.20 157.12 Z" />
<path fill="#c99b8a" d=" M 67.68 161.81 C 67.89 159.40 67.69 155.04 69.97 158.91 C 71.59 163.33 75.65 166.15 78.31 169.91 C 76.93 173.12 74.84 185.30 71.13 177.81 C 70.70 176.21 70.32 174.60 70.04 172.97 C 69.45 169.21 68.46 165.53 67.68 161.81 Z" />
<path fill="#4e3e33" d=" M 186.35 165.55 C 186.60 163.81 185.06 160.88 187.81 160.82 C 189.96 164.30 188.96 172.46 183.48 168.98 C 183.53 167.21 184.84 166.16 186.35 165.55 Z" />
<path fill="#9c7966" d=" M 68.28 173.27 C 67.46 169.50 66.69 165.67 67.68 161.81 C 68.46 165.53 69.45 169.21 70.04 172.97 L 69.23 173.13 L 68.28 173.27 Z" />
<path fill="#895c4d" d=" M 124.33 169.00 C 128.78 170.14 122.08 173.35 120.23 174.25 C 118.54 177.17 113.99 184.76 120.25 184.39 C 114.77 187.43 108.23 183.59 102.84 186.93 L 102.06 187.04 C 91.42 190.57 96.10 179.93 96.20 173.88 C 101.72 173.80 104.68 181.75 110.39 179.54 C 114.46 179.75 114.93 175.70 115.55 172.48 C 116.72 168.70 123.58 173.46 124.33 169.00 Z" />
<path fill="#a28273" d=" M 78.31 169.91 C 79.83 172.35 77.89 175.28 77.82 177.91 C 76.49 186.34 82.92 193.67 85.96 201.04 C 85.91 203.82 88.58 208.80 84.92 209.31 C 80.64 203.53 79.97 195.37 74.15 190.82 C 71.68 188.90 74.44 186.39 74.95 184.19 C 72.81 181.53 72.36 185.85 71.26 187.28 C 71.53 184.12 71.84 180.93 71.13 177.81 C 74.84 185.30 76.93 173.12 78.31 169.91 Z" />
<path fill="#3e5450" d=" M 238.85 204.21 C 240.94 193.17 239.16 181.87 240.78 170.78 C 241.57 174.04 238.96 180.12 243.81 180.38 C 247.90 182.80 257.00 182.42 255.55 175.92 C 256.99 176.82 258.49 177.62 260.00 178.41 L 260.00 180.68 C 258.71 181.19 257.43 181.70 256.19 182.31 C 257.40 191.44 252.83 200.26 254.86 209.70 C 249.95 212.50 235.89 214.13 238.85 204.21 Z" />
<path fill="#7a4536" d=" M 140.66 176.49 C 136.85 167.04 147.33 174.65 147.97 178.05 C 147.42 187.68 134.87 183.71 128.83 187.54 C 125.33 188.36 121.84 189.27 118.28 189.78 C 113.90 187.27 107.74 189.43 102.84 186.93 C 108.23 183.59 114.77 187.43 120.25 184.39 C 125.81 183.65 131.42 183.41 137.00 182.83 C 141.06 182.53 142.90 180.12 140.66 176.49 Z" />
<path fill="#5d4d43" d=" M 69.23 173.13 L 70.04 172.97 C 70.32 174.60 70.70 176.21 71.13 177.81 C 71.84 180.93 71.53 184.12 71.26 187.28 C 72.36 185.85 72.81 181.53 74.95 184.19 C 74.44 186.39 71.68 188.90 74.15 190.82 C 79.97 195.37 80.64 203.53 84.92 209.31 L 85.18 210.04 C 82.39 208.19 77.86 207.43 77.68 203.33 C 77.47 196.93 71.27 193.73 67.78 189.03 C 70.68 183.65 63.31 178.26 69.23 173.13 Z" />
<path fill="#988b82" d=" M 176.89 182.43 C 176.29 179.64 176.04 175.03 179.98 174.79 C 180.72 177.48 179.93 181.54 176.89 182.43 Z" />
<path fill="#3c2e21" d=" M 171.63 190.15 C 169.82 186.19 173.52 174.75 176.89 182.43 C 177.72 183.06 178.58 183.68 179.44 184.29 C 175.12 183.24 173.15 186.76 171.63 190.15 Z" />
<path fill="#180e0b" d=" M 65.28 181.71 C 67.67 183.46 68.52 186.16 67.78 189.03 C 65.35 200.50 72.89 214.88 86.27 212.79 C 88.83 215.20 88.15 219.10 88.87 222.22 C 88.90 226.39 88.87 230.57 88.57 234.74 C 81.39 238.92 75.57 244.99 69.05 250.06 C 69.18 243.60 67.98 236.46 71.94 230.89 C 73.93 228.44 77.26 223.79 72.49 222.29 C 64.54 219.04 68.05 210.25 67.39 203.80 C 65.01 196.53 66.87 188.88 65.28 181.71 Z" />
<path fill="#769094" d=" M 222.28 181.81 C 226.89 184.54 227.65 192.44 229.93 197.18 C 230.64 203.47 221.32 198.43 217.17 199.11 C 216.83 202.81 216.50 206.52 216.18 210.23 C 215.78 203.77 216.42 197.31 216.75 190.87 C 221.90 194.01 222.88 184.60 222.28 181.81 Z" />
<path fill="#888882" d=" M 171.63 190.15 C 173.15 186.76 175.12 183.24 179.44 184.29 C 176.71 186.22 173.23 187.60 172.98 191.69 C 179.89 192.31 170.52 194.82 170.03 198.14 C 170.13 195.40 170.80 192.75 171.63 190.15 Z" />
<path fill="#5f2e23" d=" M 102.06 187.04 L 102.84 186.93 C 107.74 189.43 113.90 187.27 118.28 189.78 C 114.43 190.32 110.59 190.93 106.71 191.16 C 105.98 191.14 104.52 191.12 103.79 191.10 C 99.94 189.88 93.02 193.39 90.92 189.08 C 94.34 187.37 98.44 188.02 102.06 187.04 Z" />
<path fill="#996756" d=" M 133.38 191.74 C 136.35 189.86 138.21 185.35 142.65 187.16 C 147.29 196.81 144.11 209.72 135.28 216.29 C 128.99 219.41 124.98 209.55 118.65 211.58 C 116.36 212.83 111.62 210.67 113.95 207.98 C 116.51 201.40 127.99 204.08 128.07 196.10 C 121.32 194.59 110.07 199.56 106.71 191.16 C 110.59 190.93 114.43 190.32 118.28 189.78 C 121.84 189.27 125.33 188.36 128.83 187.54 C 130.51 188.75 131.95 190.24 133.38 191.74 Z" />
<path fill="#362b25" d=" M 86.27 212.79 C 72.89 214.88 65.35 200.50 67.78 189.03 C 71.27 193.73 77.47 196.93 77.68 203.33 C 77.86 207.43 82.39 208.19 85.18 210.04 C 85.53 210.96 85.90 211.87 86.27 212.79 Z" />
<path fill="#6e4a3a" d=" M 163.06 250.02 C 170.65 231.80 157.69 210.89 168.83 193.77 C 169.10 196.93 169.19 200.08 169.36 203.27 C 170.75 210.61 163.93 223.27 170.91 227.93 L 171.37 228.63 C 168.95 228.67 164.36 226.51 167.98 233.00 C 168.77 239.78 167.91 246.75 168.88 253.41 C 168.58 255.36 168.02 257.26 167.47 259.15 C 167.34 258.61 167.10 257.53 166.98 256.99 C 162.62 264.49 155.08 269.40 148.09 274.20 C 150.89 268.93 156.47 265.07 156.64 258.60 C 159.71 256.49 162.22 253.77 163.06 250.02 Z" />
<path fill="#66826e" d=" M 234.64 211.61 C 235.27 206.35 241.75 212.15 238.96 214.85 C 233.35 228.66 252.09 224.82 260.00 225.00 L 260.00 231.46 C 252.34 233.28 257.00 243.62 250.82 246.00 C 250.15 249.08 246.83 251.99 244.42 248.59 C 241.90 244.50 234.64 246.18 233.38 240.74 C 233.12 231.01 235.28 221.32 234.64 211.61 Z" />
<path fill="#4f5853" d=" M 229.67 245.69 C 231.60 234.41 231.07 222.47 234.64 211.61 C 235.28 221.32 233.12 231.01 233.38 240.74 C 234.64 246.18 241.90 244.50 244.42 248.59 C 246.83 251.99 250.15 249.08 250.82 246.00 C 250.02 251.69 257.01 247.25 260.00 247.11 L 260.00 258.44 C 260.40 252.12 248.32 251.22 247.55 256.81 C 242.48 258.94 247.71 247.99 239.97 252.93 C 227.26 248.02 230.24 266.62 231.72 271.72 C 234.34 271.95 241.04 268.85 239.26 272.87 C 236.30 274.22 230.90 274.13 232.02 278.69 C 230.99 278.21 230.01 277.66 229.02 277.13 C 227.40 276.21 225.71 275.42 224.00 274.68 L 224.19 273.74 C 230.28 274.37 226.04 263.86 227.57 259.26 C 224.65 251.90 225.77 267.13 219.41 264.15 C 220.26 261.51 219.42 259.24 217.98 257.06 C 219.56 254.53 226.98 249.38 217.07 251.99 C 212.41 251.23 216.16 258.60 214.34 261.31 C 214.08 257.96 214.07 254.58 214.14 251.23 C 214.48 248.45 214.93 245.71 215.19 242.93 L 215.80 243.62 C 217.42 245.54 219.20 247.32 220.94 249.13 C 223.60 251.36 228.51 248.63 229.67 245.69 Z" />
<path fill="#d6a693" d=" M 89.02 213.82 C 90.11 215.13 91.15 216.48 92.24 217.79 C 87.79 233.52 98.94 250.37 88.87 264.54 C 87.32 262.81 85.96 260.94 84.78 258.95 C 83.86 252.67 88.83 247.07 87.58 240.95 C 87.52 240.61 87.39 239.95 87.32 239.62 C 87.98 238.06 88.66 236.47 88.57 234.74 C 88.87 230.57 88.90 226.39 88.87 222.22 C 88.90 219.42 88.95 216.62 89.02 213.82 Z" />
<path fill="#52684f" d=" M 238.96 214.85 C 245.95 213.66 253.05 215.56 260.00 213.81 L 260.00 225.00 C 252.09 224.82 233.35 228.66 238.96 214.85 Z" />
<path fill="#495a53" d=" M 216.11 219.23 C 216.63 217.71 217.16 216.19 217.85 214.74 C 216.80 224.07 220.86 235.22 215.80 243.62 L 215.19 242.93 C 215.02 240.88 214.85 238.83 214.73 236.78 C 215.06 230.91 215.44 225.06 216.11 219.23 Z" />
<path fill="#c28f79" d=" M 92.24 217.79 C 96.93 222.56 100.50 228.26 103.82 234.03 C 104.53 235.68 105.28 237.33 106.11 238.93 C 107.34 243.97 103.99 246.10 100.06 243.08 C 94.92 248.94 95.70 259.56 90.24 266.19 C 89.90 265.78 89.21 264.95 88.87 264.54 C 98.94 250.37 87.79 233.52 92.24 217.79 Z" />
<path fill="#8e5a48" d=" M 144.22 232.24 C 146.81 229.97 148.51 225.20 152.73 226.13 C 155.49 228.07 155.78 231.73 155.77 234.84 C 152.93 239.81 153.22 246.45 147.89 249.90 C 137.55 257.11 145.28 272.26 138.16 281.25 C 135.05 284.31 128.11 286.41 127.99 290.59 C 127.06 290.93 126.13 291.22 125.19 291.51 C 122.76 290.78 116.10 294.07 120.97 295.29 C 120.79 295.73 120.42 296.59 120.24 297.02 C 117.06 296.50 119.14 290.21 115.63 292.97 C 108.27 286.50 100.89 279.96 94.89 272.16 C 103.06 275.92 100.00 266.25 100.66 261.64 C 101.07 255.96 111.80 262.87 109.46 256.49 C 105.89 252.05 112.15 246.15 108.17 242.03 C 107.47 241.00 106.78 239.97 106.11 238.93 C 105.28 237.33 104.53 235.68 103.82 234.03 C 107.47 235.84 110.68 247.20 113.63 240.50 C 118.67 232.12 129.95 232.59 138.15 229.26 C 141.10 227.82 141.87 234.88 144.22 232.24 Z" />
<path fill="#4d3732" d=" M 51.33 227.32 C 51.75 227.21 52.59 227.00 53.01 226.90 C 52.45 237.39 48.95 247.89 50.94 258.39 C 48.05 259.94 45.22 261.62 42.84 263.90 C 41.16 263.96 39.48 263.94 37.79 263.92 C 41.46 251.40 46.45 239.39 51.33 227.32 Z" />
<path fill="#27170f" d=" M 167.98 233.00 C 164.36 226.51 168.95 228.67 171.37 228.63 C 172.41 229.94 173.68 231.14 174.33 232.73 C 173.77 235.06 173.19 237.41 173.07 239.82 C 172.81 241.82 172.28 243.78 171.75 245.73 C 171.14 247.06 170.52 248.39 170.09 249.80 C 169.69 251.00 169.28 252.21 168.88 253.41 C 167.91 246.75 168.77 239.78 167.98 233.00 Z" />
<path fill="#939189" d=" M 170.91 227.93 C 175.63 229.53 177.90 234.55 179.97 238.71 C 178.55 238.84 177.98 239.58 178.26 240.91 C 179.05 257.58 173.35 273.73 173.14 290.33 C 172.86 289.73 172.31 288.54 172.03 287.95 C 171.50 284.42 169.99 280.78 165.68 281.69 L 166.31 281.35 C 168.17 276.45 169.81 266.29 167.29 260.73 C 167.33 260.34 167.42 259.55 167.47 259.15 C 168.02 257.26 168.58 255.36 168.88 253.41 C 169.28 252.21 169.69 251.00 170.09 249.80 C 172.51 256.22 171.89 249.87 171.75 245.73 C 172.28 243.78 172.81 241.82 173.07 239.82 C 175.14 252.68 176.19 236.66 174.33 232.73 C 173.68 231.14 172.41 229.94 171.37 228.63 L 170.91 227.93 Z" />
<path fill="#496e34" d=" M 250.82 246.00 C 257.00 243.62 252.34 233.28 260.00 231.46 L 260.00 247.11 C 257.01 247.25 250.02 251.69 250.82 246.00 Z" />
<path fill="#6e6960" d=" M 174.33 232.73 C 176.19 236.66 175.14 252.68 173.07 239.82 C 173.19 237.41 173.77 235.06 174.33 232.73 Z" />
<path fill="#cfc4b9" d=" M 69.05 250.06 C 75.57 244.99 81.39 238.92 88.57 234.74 C 88.66 236.47 87.98 238.06 87.32 239.62 C 81.95 244.53 76.32 249.34 72.22 255.41 C 69.61 251.93 67.04 254.71 64.14 256.04 L 63.90 255.16 C 65.27 253.13 67.14 251.55 69.05 250.06 Z" />
<path fill="#7d8b8b" d=" M 214.14 251.23 C 213.97 246.41 214.11 241.56 214.73 236.78 C 214.85 238.83 215.02 240.88 215.19 242.93 C 214.93 245.71 214.48 248.45 214.14 251.23 Z" />
<path fill="#aa7968" d=" M 106.11 238.93 C 106.78 239.97 107.47 241.00 108.17 242.03 C 107.89 245.16 107.38 248.66 104.65 250.64 C 99.57 255.52 99.92 269.61 90.24 266.19 C 95.70 259.56 94.92 248.94 100.06 243.08 C 103.99 246.10 107.34 243.97 106.11 238.93 Z" />
<path fill="#888467" d=" M 178.26 240.91 C 177.98 239.58 178.55 238.84 179.97 238.71 C 180.83 240.53 181.87 242.26 183.11 243.85 C 185.78 262.06 174.33 280.22 178.84 298.13 C 176.62 295.78 174.69 293.15 173.14 290.33 C 173.35 273.73 179.05 257.58 178.26 240.91 Z" />
<path fill="#7c7661" d=" M 72.22 255.41 C 76.32 249.34 81.95 244.53 87.32 239.62 C 87.39 239.95 87.52 240.61 87.58 240.95 C 81.35 245.75 82.31 254.05 77.97 259.86 C 73.93 264.16 73.07 270.27 72.08 275.84 C 72.74 275.88 74.08 275.97 74.74 276.01 C 67.05 279.56 60.03 287.05 53.77 293.79 C 52.21 295.35 53.93 297.55 54.09 299.34 C 52.96 301.46 51.61 303.49 50.99 305.84 C 50.49 308.22 50.17 310.63 50.01 313.06 C 49.30 321.48 47.24 329.70 45.76 338.00 L 41.90 338.00 C 44.39 329.27 45.46 320.23 46.29 311.22 C 46.20 306.81 51.55 294.52 42.98 298.90 C 43.12 295.79 41.97 291.99 44.70 289.76 C 51.52 291.87 51.23 283.87 52.05 279.27 C 57.37 274.27 61.68 268.49 65.25 262.12 C 67.47 261.33 68.14 263.01 68.43 264.91 C 70.44 265.17 72.35 264.13 73.81 262.83 C 74.65 260.17 70.52 261.14 69.01 260.02 C 70.03 258.45 71.19 256.98 72.22 255.41 Z" />
<path fill="#512d1c" d=" M 77.97 259.86 C 82.31 254.05 81.35 245.75 87.58 240.95 C 88.83 247.07 83.86 252.67 84.78 258.95 C 77.32 259.66 81.50 272.47 73.95 272.05 C 74.97 267.88 77.01 264.04 77.97 259.86 Z" />
<path fill="#8d6758" d=" M 108.17 242.03 C 112.15 246.15 105.89 252.05 109.46 256.49 C 111.80 262.87 101.07 255.96 100.66 261.64 C 100.00 266.25 103.06 275.92 94.89 272.16 C 93.29 270.65 92.36 268.04 89.88 267.88 C 91.22 273.22 95.98 276.68 99.23 280.87 C 97.94 281.36 96.64 281.83 95.34 282.29 C 90.31 282.43 83.94 285.63 80.81 280.07 C 80.27 279.24 79.74 278.40 79.22 277.56 C 78.60 274.61 74.75 270.41 74.74 276.01 C 74.08 275.97 72.74 275.88 72.08 275.84 C 73.07 270.27 73.93 264.16 77.97 259.86 C 77.01 264.04 74.97 267.88 73.95 272.05 C 81.50 272.47 77.32 259.66 84.78 258.95 C 85.96 260.94 87.32 262.81 88.87 264.54 C 89.21 264.95 89.90 265.78 90.24 266.19 C 99.92 269.61 99.57 255.52 104.65 250.64 C 107.38 248.66 107.89 245.16 108.17 242.03 Z" />
<path fill="#aaa887" d=" M 183.11 243.85 C 186.61 247.09 188.62 251.60 190.57 255.84 C 190.43 256.37 190.15 257.42 190.02 257.94 C 187.74 257.26 183.74 254.57 186.84 261.93 C 185.69 270.08 185.16 278.71 181.29 286.07 C 182.44 290.53 180.79 294.84 179.75 299.14 C 179.52 298.88 179.07 298.38 178.84 298.13 C 174.33 280.22 185.78 262.06 183.11 243.85 Z" />
<path fill="#635b57" d=" M 170.09 249.80 C 170.52 248.39 171.14 247.06 171.75 245.73 C 171.89 249.87 172.51 256.22 170.09 249.80 Z" />
<path fill="#3c3d37" d=" M 214.34 261.31 C 216.16 258.60 212.41 251.23 217.07 251.99 C 226.98 249.38 219.56 254.53 217.98 257.06 C 219.42 259.24 220.26 261.51 219.41 264.15 C 225.77 267.13 224.65 251.90 227.57 259.26 C 226.04 263.86 230.28 274.37 224.19 273.74 C 222.51 273.25 220.83 272.78 219.15 272.30 C 216.70 270.68 212.40 269.87 212.93 266.12 C 213.50 264.54 214.00 262.94 214.34 261.31 Z" />
<path fill="#9d948e" d=" M 64.14 256.04 C 67.04 254.71 69.61 251.93 72.22 255.41 C 71.19 256.98 70.03 258.45 69.01 260.02 C 70.52 261.14 74.65 260.17 73.81 262.83 C 72.35 264.13 70.44 265.17 68.43 264.91 C 68.14 263.01 67.47 261.33 65.25 262.12 C 61.68 268.49 57.37 274.27 52.05 279.27 L 51.42 278.73 C 50.46 274.61 47.92 277.33 45.86 279.03 C 45.96 277.26 46.36 275.51 47.74 274.30 C 51.96 270.85 54.94 266.28 58.27 262.05 C 60.37 260.19 62.61 258.42 64.14 256.04 Z" />
<path fill="#34423a" d=" M 231.72 271.72 C 230.24 266.62 227.26 248.02 239.97 252.93 C 247.71 247.99 242.48 258.94 247.55 256.81 C 248.32 251.22 260.40 252.12 260.00 258.44 L 260.00 263.36 C 258.44 264.48 257.94 266.36 257.08 267.97 C 257.96 264.36 254.79 261.08 253.46 265.96 C 252.01 263.04 250.87 258.49 248.41 263.76 C 243.47 267.53 251.43 274.37 245.35 276.36 C 241.43 278.55 244.22 271.23 242.34 268.99 C 246.63 265.34 242.64 261.74 239.20 259.99 C 238.48 264.47 236.31 263.47 233.06 261.86 C 233.95 265.31 234.05 268.79 231.72 271.72 Z" />
<path fill="#80807b" d=" M 57.95 255.56 C 59.44 255.46 62.41 255.26 63.90 255.16 L 64.14 256.04 C 62.10 256.79 59.92 256.21 57.95 255.56 Z" />
<path fill="#dcd3bc" d=" M 50.94 258.39 C 53.23 257.33 55.53 256.28 57.95 255.56 C 59.92 256.21 62.10 256.79 64.14 256.04 C 62.61 258.42 60.37 260.19 58.27 262.05 C 57.82 261.71 56.92 261.02 56.47 260.68 C 52.06 257.22 46.88 264.15 43.34 266.93 C 39.48 266.32 35.58 265.95 31.73 265.29 C 35.63 265.47 39.33 265.00 42.84 263.90 C 45.22 261.62 48.05 259.94 50.94 258.39 Z" />
<path fill="#777763" d=" M 190.02 257.94 C 190.15 257.42 190.43 256.37 190.57 255.84 C 190.95 261.14 197.14 261.88 201.14 262.91 C 202.92 265.35 199.96 264.97 198.23 265.34 C 196.39 271.02 197.20 277.14 197.01 283.03 C 194.78 285.53 191.86 287.60 190.60 290.83 C 188.74 292.84 191.02 304.64 186.09 299.80 C 187.14 287.79 191.77 275.61 190.17 263.63 C 190.07 261.73 190.02 259.83 190.02 257.94 Z" />
<path fill="#3e2117" d=" M 148.09 274.20 C 155.08 269.40 162.62 264.49 166.98 256.99 C 167.10 257.53 167.34 258.61 167.47 259.15 C 167.42 259.55 167.33 260.34 167.29 260.73 C 166.59 262.81 165.88 264.88 165.18 266.96 C 155.15 273.13 145.38 279.94 135.82 286.84 C 133.37 288.40 130.76 289.71 127.99 290.59 C 128.11 286.41 135.05 284.31 138.16 281.25 C 141.74 279.31 144.92 276.73 148.09 274.20 Z" />
<path fill="#b6b8b0" d=" M 186.84 261.93 C 183.74 254.57 187.74 257.26 190.02 257.94 C 190.02 259.83 190.07 261.73 190.17 263.63 C 187.97 276.27 185.37 288.88 184.68 301.72 C 184.24 301.89 183.36 302.21 182.92 302.37 C 182.54 302.03 181.76 301.35 181.38 301.01 C 180.97 300.54 180.16 299.60 179.75 299.14 C 180.79 294.84 182.44 290.53 181.29 286.07 C 185.16 278.71 185.69 270.08 186.84 261.93 Z" />
<path fill="#c3b88f" d=" M 43.34 266.93 C 46.88 264.15 52.06 257.22 56.47 260.68 C 55.65 264.01 53.00 263.72 50.26 263.22 C 46.82 265.70 46.19 270.52 47.74 274.30 C 46.36 275.51 45.96 277.26 45.86 279.03 C 44.98 281.77 44.03 284.50 42.79 287.11 C 41.16 288.45 39.58 289.86 37.84 291.06 C 35.10 282.33 38.07 273.79 43.34 266.93 Z" />
<path fill="#1c1e18" d=" M 239.20 259.99 C 242.64 261.74 246.63 265.34 242.34 268.99 C 244.22 271.23 241.43 278.55 245.35 276.36 C 251.43 274.37 243.47 267.53 248.41 263.76 C 250.08 267.11 253.40 272.71 257.08 267.97 C 257.94 266.36 258.44 264.48 260.00 263.36 L 260.00 292.95 L 259.15 292.48 C 256.87 291.17 254.57 289.92 252.26 288.70 C 248.75 286.78 245.08 285.19 241.59 283.25 C 240.02 281.17 244.67 277.47 241.06 277.43 C 237.96 278.45 239.91 274.58 239.26 272.87 C 241.04 268.85 234.34 271.95 231.72 271.72 C 234.05 268.79 233.95 265.31 233.06 261.86 C 236.31 263.47 238.48 264.47 239.20 259.99 Z" />
<path fill="#f2ebd9" d=" M 56.47 260.68 C 56.92 261.02 57.82 261.71 58.27 262.05 C 54.94 266.28 51.96 270.85 47.74 274.30 C 46.19 270.52 46.82 265.70 50.26 263.22 C 53.00 263.72 55.65 264.01 56.47 260.68 Z" />
<path fill="#a6a8a7" d=" M 167.29 260.73 C 169.81 266.29 168.17 276.45 166.31 281.35 C 160.47 282.00 164.53 274.70 164.13 271.06 C 164.55 269.71 164.85 268.33 165.18 266.96 C 165.88 264.88 166.59 262.81 167.29 260.73 Z" />
<path fill="#586359" d=" M 248.41 263.76 C 250.87 258.49 252.01 263.04 253.46 265.96 C 254.79 261.08 257.96 264.36 257.08 267.97 C 253.40 272.71 250.08 267.11 248.41 263.76 Z" />
<path fill="#90938d" d=" M 201.14 262.91 C 203.34 263.52 205.25 264.80 207.15 266.03 C 205.72 270.03 204.58 274.14 203.35 278.21 C 203.37 275.84 201.20 268.78 201.90 278.36 C 198.69 277.48 198.33 280.97 197.01 283.03 C 197.20 277.14 196.39 271.02 198.23 265.34 C 199.96 264.97 202.92 265.35 201.14 262.91 Z" />
<path fill="#6a6860" d=" M 28.77 264.79 C 31.61 263.54 34.78 264.03 37.79 263.92 C 39.48 263.94 41.16 263.96 42.84 263.90 C 39.33 265.00 35.63 265.47 31.73 265.29 C 30.99 265.16 29.51 264.91 28.77 264.79 Z" />
<path fill="#91918b" d=" M 190.17 263.63 C 191.77 275.61 187.14 287.79 186.09 299.80 C 191.02 304.64 188.74 292.84 190.60 290.83 C 190.30 293.97 193.05 295.38 195.72 295.76 C 196.53 293.18 197.17 290.52 198.42 288.11 C 199.18 293.01 204.91 281.03 200.71 292.79 C 196.16 307.86 189.25 322.37 186.75 338.00 L 175.70 338.00 C 176.80 331.45 179.81 325.40 181.08 318.90 C 182.19 314.59 190.58 306.93 184.41 303.70 C 184.04 303.37 183.30 302.70 182.92 302.37 C 183.36 302.21 184.24 301.89 184.68 301.72 C 185.37 288.88 187.97 276.27 190.17 263.63 Z" />
<path fill="#e8e6d5" d=" M 1.76 276.29 C 10.16 271.14 19.68 268.39 28.77 264.79 C 29.51 264.91 30.99 265.16 31.73 265.29 C 35.58 265.95 39.48 266.32 43.34 266.93 C 38.07 273.79 35.10 282.33 37.84 291.06 C 36.60 291.95 35.29 292.76 33.96 293.54 C 29.08 293.79 32.12 286.82 32.01 283.90 C 28.44 283.74 26.38 288.56 22.63 286.27 C 25.47 281.70 27.66 272.37 20.00 272.16 C 15.77 274.05 11.84 276.93 7.06 277.24 C 5.29 276.98 3.51 276.68 1.76 276.29 Z" />
<path fill="#a1a29e" d=" M 207.15 266.03 C 209.07 266.05 211.00 266.07 212.93 266.12 C 212.40 269.87 216.70 270.68 219.15 272.30 C 216.48 272.26 213.84 272.12 211.18 272.22 C 209.75 295.18 196.17 315.21 193.80 338.00 L 186.75 338.00 C 189.25 322.37 196.16 307.86 200.71 292.79 C 204.91 281.03 199.18 293.01 198.42 288.11 C 197.17 290.52 196.53 293.18 195.72 295.76 C 193.05 295.38 190.30 293.97 190.60 290.83 C 191.86 287.60 194.78 285.53 197.01 283.03 C 198.33 280.97 198.69 277.48 201.90 278.36 C 201.20 268.78 203.37 275.84 203.35 278.21 C 204.58 274.14 205.72 270.03 207.15 266.03 Z" />
<path fill="#73554b" d=" M 135.82 286.84 C 145.38 279.94 155.15 273.13 165.18 266.96 C 164.85 268.33 164.55 269.71 164.13 271.06 C 162.27 274.73 160.51 278.60 160.54 282.80 C 157.73 283.93 154.61 283.84 151.71 284.64 C 150.18 284.99 148.66 285.42 147.17 285.93 C 144.01 286.30 140.87 286.75 137.71 287.16 C 137.24 287.08 136.29 286.92 135.82 286.84 Z" />
<path fill="#552e23" d=" M 89.88 267.88 C 92.36 268.04 93.29 270.65 94.89 272.16 C 100.89 279.96 108.27 286.50 115.63 292.97 C 116.03 294.42 116.43 295.87 116.76 297.34 C 112.34 294.59 109.07 290.37 105.29 286.84 C 103.31 284.81 101.28 282.82 99.23 280.87 C 95.98 276.68 91.22 273.22 89.88 267.88 Z" />
<path fill="#86796a" d=" M 160.54 282.80 C 160.51 278.60 162.27 274.73 164.13 271.06 C 164.53 274.70 160.47 282.00 166.31 281.35 L 165.68 281.69 C 159.66 285.46 153.51 290.46 151.85 297.99 C 154.57 296.79 159.71 295.04 159.18 300.02 C 158.32 301.77 157.54 303.55 156.76 305.34 L 156.31 304.72 C 150.48 299.19 146.16 310.28 141.21 312.32 C 141.59 310.54 142.03 308.79 142.57 307.06 C 145.97 309.66 146.68 303.91 147.72 301.68 C 147.04 299.32 152.56 292.93 147.92 292.67 C 149.38 291.57 154.73 291.45 151.93 289.09 C 149.58 288.13 150.87 286.26 151.71 284.64 C 154.61 283.84 157.73 283.93 160.54 282.80 Z" />
<path fill="#d0cda7" d=" M 7.06 277.24 C 11.84 276.93 15.77 274.05 20.00 272.16 C 27.66 272.37 25.47 281.70 22.63 286.27 C 22.24 285.94 21.45 285.27 21.06 284.94 C 17.73 282.03 14.07 279.29 9.74 278.11 C 9.10 278.10 7.83 278.08 7.19 278.07 L 7.06 277.24 Z" />
<path fill="#8c896c" d=" M 211.18 272.22 C 213.84 272.12 216.48 272.26 219.15 272.30 C 220.83 272.78 222.51 273.25 224.19 273.74 C 221.88 274.05 218.64 273.44 217.59 276.14 C 218.09 290.27 209.52 302.51 207.13 316.08 C 205.90 323.65 201.20 330.29 200.77 338.00 L 193.80 338.00 C 196.17 315.21 209.75 295.18 211.18 272.22 Z" />
<path fill="#999284" d=" M 74.74 276.01 C 74.75 270.41 78.60 274.61 79.22 277.56 C 76.37 277.77 73.64 279.69 73.88 282.82 C 67.74 277.57 69.82 291.01 64.32 292.67 C 60.76 294.59 57.79 298.28 54.09 299.34 C 53.93 297.55 52.21 295.35 53.77 293.79 C 60.03 287.05 67.05 279.56 74.74 276.01 Z" />
<path fill="#3e3f34" d=" M 232.02 278.69 C 230.90 274.13 236.30 274.22 239.26 272.87 C 239.91 274.58 237.96 278.45 241.06 277.43 C 244.67 277.47 240.02 281.17 241.59 283.25 C 240.07 282.45 238.58 281.58 237.04 280.84 C 235.40 280.05 233.68 279.43 232.02 278.69 Z" />
<path fill="#b3af8c" d=" M 217.59 276.14 C 218.64 273.44 221.88 274.05 224.19 273.74 L 224.00 274.68 C 222.66 284.03 222.58 293.83 217.15 302.06 C 215.97 314.60 209.33 325.69 206.88 338.00 L 200.77 338.00 C 201.20 330.29 205.90 323.65 207.13 316.08 C 209.52 302.51 218.09 290.27 217.59 276.14 Z" />
<path fill="#b9bec0" d=" M 224.00 274.68 C 225.71 275.42 227.40 276.21 229.02 277.13 C 227.44 298.39 215.71 317.20 211.70 338.00 L 206.88 338.00 C 209.33 325.69 215.97 314.60 217.15 302.06 C 222.58 293.83 222.66 284.03 224.00 274.68 Z" />
<path fill="#989793" d=" M 0.00 277.18 C 0.44 276.96 1.32 276.52 1.76 276.29 C 3.51 276.68 5.29 276.98 7.06 277.24 L 7.19 278.07 C 7.01 281.47 1.91 275.63 0.00 280.06 L 0.00 277.18 Z" />
<path fill="#564e39" d=" M 45.86 279.03 C 47.92 277.33 50.46 274.61 51.42 278.73 C 49.12 281.62 46.95 284.62 44.89 287.70 C 44.37 287.55 43.32 287.26 42.79 287.11 C 44.03 284.50 44.98 281.77 45.86 279.03 Z" />
<path fill="#8d8f7e" d=" M 229.02 277.13 C 230.01 277.66 230.99 278.21 232.02 278.69 C 233.68 279.43 235.40 280.05 237.04 280.84 C 235.67 280.66 234.60 280.98 233.82 281.79 C 229.68 300.90 221.52 318.98 216.83 338.00 L 211.70 338.00 C 215.71 317.20 227.44 298.39 229.02 277.13 Z" />
<path fill="#6a6653" d=" M 0.00 280.06 C 1.91 275.63 7.01 281.47 7.19 278.07 C 7.83 278.08 9.10 278.10 9.74 278.11 C 8.24 281.58 14.01 282.16 15.62 284.36 C 17.53 288.15 18.57 292.32 20.32 296.19 C 20.08 297.77 19.83 299.36 19.62 300.95 C 18.34 313.55 14.37 325.62 11.98 338.00 L 0.00 338.00 L 0.00 280.06 Z" />
<path fill="#8a856e" d=" M 9.74 278.11 C 14.07 279.29 17.73 282.03 21.06 284.94 C 22.53 288.64 21.54 292.55 20.32 296.19 C 18.57 292.32 17.53 288.15 15.62 284.36 C 14.01 282.16 8.24 281.58 9.74 278.11 Z" />
<path fill="#b4b3a2" d=" M 73.88 282.82 C 73.64 279.69 76.37 277.77 79.22 277.56 C 79.74 278.40 80.27 279.24 80.81 280.07 C 84.76 285.68 84.58 292.94 88.63 298.42 C 88.99 302.26 86.76 306.07 88.23 309.84 C 90.44 314.03 82.44 312.22 82.93 316.08 C 86.07 315.62 89.02 314.37 92.16 313.92 C 91.05 316.40 88.47 317.05 86.02 317.37 C 86.31 324.15 95.64 314.65 96.00 320.83 C 87.80 322.14 98.17 326.93 100.26 329.77 C 104.93 333.17 96.33 336.24 93.89 333.04 C 92.49 332.01 91.08 330.98 89.68 329.96 C 103.08 331.58 89.47 320.02 84.86 326.27 C 84.38 325.86 83.40 325.03 82.91 324.61 C 80.87 322.68 78.71 320.87 76.48 319.15 C 80.38 316.63 82.96 313.48 83.73 308.79 C 79.44 310.66 75.35 313.01 71.73 316.01 C 70.55 315.21 69.35 314.43 68.13 313.71 C 63.59 311.45 68.44 305.47 72.43 308.85 C 76.24 310.62 78.92 306.00 81.58 304.04 C 79.83 298.60 79.77 292.47 81.90 287.13 C 80.40 286.28 78.77 285.74 77.18 285.11 C 76.07 284.36 74.97 283.58 73.88 282.82 Z" />
<path fill="#b7b4a2" d=" M 51.42 278.73 L 52.05 279.27 C 51.23 283.87 51.52 291.87 44.70 289.76 L 45.26 289.07 C 45.17 288.72 44.98 288.04 44.89 287.70 C 46.95 284.62 49.12 281.62 51.42 278.73 Z" />
<path fill="#998473" d=" M 80.81 280.07 C 83.94 285.63 90.31 282.43 95.34 282.29 C 95.01 285.18 93.32 287.52 91.83 289.91 C 90.94 291.83 89.14 294.26 90.66 296.31 C 96.63 305.30 102.06 314.76 105.67 324.97 C 105.27 327.94 103.89 330.77 104.04 333.82 C 105.76 335.62 109.54 334.64 109.38 338.00 L 98.29 338.00 C 96.80 336.37 95.35 334.69 93.89 333.04 C 96.33 336.24 104.93 333.17 100.26 329.77 C 98.17 326.93 87.80 322.14 96.00 320.83 C 95.64 314.65 86.31 324.15 86.02 317.37 C 88.47 317.05 91.05 316.40 92.16 313.92 C 89.02 314.37 86.07 315.62 82.93 316.08 C 82.44 312.22 90.44 314.03 88.23 309.84 C 86.76 306.07 88.99 302.26 88.63 298.42 C 84.58 292.94 84.76 285.68 80.81 280.07 Z" />
<path fill="#6a695d" d=" M 64.32 292.67 C 69.82 291.01 67.74 277.57 73.88 282.82 C 74.97 283.58 76.07 284.36 77.18 285.11 C 76.46 289.27 73.28 292.44 72.48 296.61 C 68.13 294.40 66.13 297.84 62.88 299.11 C 63.13 296.91 64.75 294.94 64.32 292.67 Z" />
<path fill="#e1b2a1" d=" M 95.34 282.29 C 96.64 281.83 97.94 281.36 99.23 280.87 C 101.28 282.82 103.31 284.81 105.29 286.84 C 105.06 288.63 105.03 290.51 104.21 292.16 C 99.51 294.09 90.00 299.40 91.83 289.91 C 93.32 287.52 95.01 285.18 95.34 282.29 Z" />
<path fill="#bac4d8" d=" M 233.82 281.79 C 234.60 280.98 235.67 280.66 237.04 280.84 C 238.58 281.58 240.07 282.45 241.59 283.25 C 245.08 285.19 248.75 286.78 252.26 288.70 C 254.23 292.12 254.69 296.46 253.13 300.11 C 249.03 312.81 240.72 324.37 239.83 338.00 L 216.83 338.00 C 221.52 318.98 229.68 300.90 233.82 281.79 Z" />
<path fill="#6a5947" d=" M 151.85 297.99 C 153.51 290.46 159.66 285.46 165.68 281.69 C 169.99 280.78 171.50 284.42 172.03 287.95 C 165.37 285.20 163.81 295.01 160.71 299.06 C 160.33 299.30 159.56 299.78 159.18 300.02 C 159.71 295.04 154.57 296.79 151.85 297.99 Z" />
<path fill="#cbc6aa" d=" M 22.63 286.27 C 26.38 288.56 28.44 283.74 32.01 283.90 C 32.12 286.82 29.08 293.79 33.96 293.54 C 36.20 297.37 41.12 288.81 45.26 289.07 L 44.70 289.76 C 41.97 291.99 43.12 295.79 42.98 298.90 C 42.63 300.78 43.87 304.13 41.00 304.26 C 39.68 303.05 38.40 301.79 36.94 300.74 C 32.79 298.89 29.84 295.73 28.87 291.23 C 24.97 293.13 23.30 289.60 22.63 286.27 Z" />
<path fill="#a4a399" d=" M 21.06 284.94 C 21.45 285.27 22.24 285.94 22.63 286.27 C 23.30 289.60 24.97 293.13 28.87 291.23 C 29.84 295.73 32.79 298.89 36.94 300.74 C 31.46 303.40 31.63 310.93 29.97 316.24 C 20.95 314.67 29.11 305.14 25.46 299.81 C 25.84 304.23 21.74 303.09 19.62 300.95 C 19.83 299.36 20.08 297.77 20.32 296.19 C 21.54 292.55 22.53 288.64 21.06 284.94 Z" />
<path fill="#7c7c73" d=" M 77.18 285.11 C 78.77 285.74 80.40 286.28 81.90 287.13 C 79.77 292.47 79.83 298.60 81.58 304.04 C 78.92 306.00 76.24 310.62 72.43 308.85 C 68.44 305.47 63.59 311.45 68.13 313.71 C 67.53 314.01 66.33 314.61 65.73 314.91 C 60.33 312.81 56.80 305.60 50.99 305.84 C 51.61 303.49 52.96 301.46 54.09 299.34 C 57.79 298.28 60.76 294.59 64.32 292.67 C 64.75 294.94 63.13 296.91 62.88 299.11 C 66.13 297.84 68.13 294.40 72.48 296.61 C 73.28 292.44 76.46 289.27 77.18 285.11 Z" />
<path fill="#a59f95" d=" M 147.17 285.93 C 148.66 285.42 150.18 284.99 151.71 284.64 C 150.87 286.26 149.58 288.13 151.93 289.09 C 154.73 291.45 149.38 291.57 147.92 292.67 C 144.98 296.90 144.28 302.27 142.57 307.06 C 142.03 308.79 141.59 310.54 141.21 312.32 C 146.16 310.28 150.48 299.19 156.31 304.72 C 155.21 307.84 154.24 311.00 153.37 314.19 C 153.38 312.04 152.33 310.47 150.17 310.14 C 143.20 317.67 142.36 328.67 138.83 338.00 L 132.86 338.00 C 133.89 333.46 135.32 329.03 136.44 324.51 C 140.09 316.32 135.77 320.49 133.82 321.88 C 139.93 315.14 141.15 306.73 138.90 297.96 C 139.38 296.18 142.81 292.56 139.04 292.85 C 139.88 290.90 144.97 290.90 143.02 288.62 C 144.63 288.05 146.92 288.08 147.17 285.93 Z" />
<path fill="#ead8cb" d=" M 137.71 287.16 C 140.87 286.75 144.01 286.30 147.17 285.93 C 146.92 288.08 144.63 288.05 143.02 288.62 C 142.57 288.63 141.67 288.67 141.23 288.69 C 140.05 288.19 138.88 287.67 137.71 287.16 Z" />
<path fill="#918762" d=" M 37.84 291.06 C 39.58 289.86 41.16 288.45 42.79 287.11 C 43.32 287.26 44.37 287.55 44.89 287.70 C 44.98 288.04 45.17 288.72 45.26 289.07 C 41.12 288.81 36.20 297.37 33.96 293.54 C 35.29 292.76 36.60 291.95 37.84 291.06 Z" />
<path fill="#ae7d6e" d=" M 105.29 286.84 C 109.07 290.37 112.34 294.59 116.76 297.34 C 116.43 295.87 116.03 294.42 115.63 292.97 C 119.14 290.21 117.06 296.50 120.24 297.02 C 117.32 300.38 115.41 298.03 111.87 301.89 C 110.94 302.17 110.01 302.46 109.08 302.75 C 102.04 304.50 100.41 296.71 104.21 292.16 C 105.03 290.51 105.06 288.63 105.29 286.84 Z" />
<path fill="#9b928b" d=" M 127.99 290.59 C 130.76 289.71 133.37 288.40 135.82 286.84 C 136.29 286.92 137.24 287.08 137.71 287.16 C 138.88 287.67 140.05 288.19 141.23 288.69 C 135.86 288.93 130.80 291.36 126.57 294.55 C 122.01 300.85 119.90 308.42 116.18 315.17 C 114.51 318.94 118.04 313.62 118.38 316.68 C 122.21 312.78 124.66 308.46 125.13 302.91 C 128.96 305.56 126.96 309.86 127.98 313.53 C 127.52 314.98 127.03 316.43 126.56 317.88 C 124.51 322.84 123.08 328.03 121.00 332.97 C 117.44 335.63 119.75 330.61 119.73 328.57 C 117.37 327.19 115.07 327.47 113.24 329.54 C 111.74 324.76 108.39 341.40 110.01 327.07 C 107.05 329.59 106.37 328.47 107.43 324.88 C 108.28 322.65 109.05 320.39 109.88 318.16 L 110.21 317.37 C 112.29 310.21 119.38 304.09 120.24 297.02 C 120.42 296.59 120.79 295.73 120.97 295.29 C 122.39 294.04 123.77 292.75 125.19 291.51 C 126.13 291.22 127.06 290.93 127.99 290.59 Z" />
<path fill="#282112" d=" M 160.71 299.06 C 163.81 295.01 165.37 285.20 172.03 287.95 C 172.31 288.54 172.86 289.73 173.14 290.33 C 174.69 293.15 176.62 295.78 178.84 298.13 C 179.07 298.38 179.52 298.88 179.75 299.14 C 180.16 299.60 180.97 300.54 181.38 301.01 C 179.97 306.15 174.11 305.19 170.94 302.24 C 167.79 300.15 163.07 302.42 160.71 299.06 Z" />
<path fill="#86796f" d=" M 126.57 294.55 C 130.80 291.36 135.86 288.93 141.23 288.69 C 141.67 288.67 142.57 288.63 143.02 288.62 C 144.97 290.90 139.88 290.90 139.04 292.85 C 132.93 298.27 130.72 306.18 127.98 313.53 C 126.96 309.86 128.96 305.56 125.13 302.91 C 124.66 308.46 122.21 312.78 118.38 316.68 C 118.04 313.62 114.51 318.94 116.18 315.17 C 119.90 308.42 122.01 300.85 126.57 294.55 Z" />
<path fill="#969280" d=" M 252.26 288.70 C 254.57 289.92 256.87 291.17 259.15 292.48 C 255.53 295.61 257.65 302.91 254.12 307.04 C 252.68 309.85 251.58 313.22 254.53 315.42 C 253.30 323.77 242.68 329.03 241.96 338.00 L 239.83 338.00 C 240.72 324.37 249.03 312.81 253.13 300.11 C 254.69 296.46 254.23 292.12 252.26 288.70 Z" />
<path fill="#c49687" d=" M 90.66 296.31 C 89.14 294.26 90.94 291.83 91.83 289.91 C 90.00 299.40 99.51 294.09 104.21 292.16 C 100.41 296.71 102.04 304.50 109.08 302.75 C 103.23 307.08 103.51 314.56 109.88 318.16 C 109.05 320.39 108.28 322.65 107.43 324.88 C 106.99 324.90 106.11 324.94 105.67 324.97 C 102.06 314.76 96.63 305.30 90.66 296.31 Z" />
<path fill="#4f3123" d=" M 120.97 295.29 C 116.10 294.07 122.76 290.78 125.19 291.51 C 123.77 292.75 122.39 294.04 120.97 295.29 Z" />
<path fill="#ddd5d7" d=" M 139.04 292.85 C 142.81 292.56 139.38 296.18 138.90 297.96 C 137.44 303.66 140.18 310.33 134.93 314.90 C 132.71 317.01 129.07 322.50 126.56 317.88 C 127.03 316.43 127.52 314.98 127.98 313.53 C 130.72 306.18 132.93 298.27 139.04 292.85 Z" />
<path fill="#685844" d=" M 142.57 307.06 C 144.28 302.27 144.98 296.90 147.92 292.67 C 152.56 292.93 147.04 299.32 147.72 301.68 C 146.68 303.91 145.97 309.66 142.57 307.06 Z" />
<path fill="#b0aea4" d=" M 254.12 307.04 C 257.65 302.91 255.53 295.61 259.15 292.48 L 260.00 292.95 L 260.00 323.65 C 255.15 328.11 250.93 333.16 246.48 338.00 L 241.96 338.00 C 242.68 329.03 253.30 323.77 254.53 315.42 C 251.58 313.22 252.68 309.85 254.12 307.04 Z" />
<path fill="#c1a697" d=" M 120.24 297.02 C 119.38 304.09 112.29 310.21 110.21 317.37 C 109.91 316.88 109.31 315.92 109.01 315.43 C 111.32 312.45 115.55 306.05 109.05 305.83 C 110.83 303.78 118.44 301.46 111.87 301.89 C 115.41 298.03 117.32 300.38 120.24 297.02 Z" />
<path fill="#aaa58a" d=" M 42.98 298.90 C 51.55 294.52 46.20 306.81 46.29 311.22 C 46.15 309.70 45.96 308.18 45.72 306.68 C 42.17 316.92 40.75 327.83 36.82 338.00 L 32.91 338.00 C 32.21 326.20 37.06 315.10 41.00 304.26 C 43.87 304.13 42.63 300.78 42.98 298.90 Z" />
<path fill="#babac9" d=" M 134.93 314.90 C 140.18 310.33 137.44 303.66 138.90 297.96 C 141.15 306.73 139.93 315.14 133.82 321.88 C 131.91 327.17 130.56 332.64 128.86 338.00 L 119.78 338.00 C 120.15 336.31 120.56 334.64 121.00 332.97 C 123.08 328.03 124.51 322.84 126.56 317.88 C 129.07 322.50 132.71 317.01 134.93 314.90 Z" />
<path fill="#4f4b38" d=" M 159.18 300.02 C 159.56 299.78 160.33 299.30 160.71 299.06 C 163.07 302.42 167.79 300.15 170.94 302.24 C 174.11 305.19 179.97 306.15 181.38 301.01 C 181.76 301.35 182.54 302.03 182.92 302.37 C 183.30 302.70 184.04 303.37 184.41 303.70 C 184.47 310.21 178.57 314.43 173.71 317.73 C 169.76 318.08 165.92 315.68 161.88 316.52 C 162.41 312.12 165.11 308.23 164.98 303.74 C 162.49 306.71 162.10 310.76 160.61 314.23 C 158.91 311.36 160.20 307.62 156.76 305.34 C 157.54 303.55 158.32 301.77 159.18 300.02 Z" />
<path fill="#8d8c89" d=" M 25.46 299.81 C 29.11 305.14 20.95 314.67 29.97 316.24 C 27.97 323.38 27.51 330.77 26.00 338.00 L 11.98 338.00 C 14.37 325.62 18.34 313.55 19.62 300.95 C 21.74 303.09 25.84 304.23 25.46 299.81 Z" />
<path fill="#868163" d=" M 29.97 316.24 C 31.63 310.93 31.46 303.40 36.94 300.74 C 38.40 301.79 39.68 303.05 41.00 304.26 C 37.06 315.10 32.21 326.20 32.91 338.00 L 26.00 338.00 C 27.51 330.77 27.97 323.38 29.97 316.24 Z" />
<path fill="#e9c3b8" d=" M 109.08 302.75 C 110.01 302.46 110.94 302.17 111.87 301.89 C 118.44 301.46 110.83 303.78 109.05 305.83 C 106.81 308.71 106.17 312.68 109.01 315.43 C 109.31 315.92 109.91 316.88 110.21 317.37 L 109.88 318.16 C 103.51 314.56 103.23 307.08 109.08 302.75 Z" />
<path fill="#646453" d=" M 160.61 314.23 C 162.10 310.76 162.49 306.71 164.98 303.74 C 165.11 308.23 162.41 312.12 161.88 316.52 C 165.92 315.68 169.76 318.08 173.71 317.73 C 178.57 314.43 184.47 310.21 184.41 303.70 C 190.58 306.93 182.19 314.59 181.08 318.90 C 173.54 323.75 167.40 333.57 157.06 331.56 C 157.92 328.40 158.96 325.24 159.02 321.92 C 157.40 325.48 156.20 329.22 154.74 332.86 C 151.50 331.97 149.33 329.20 149.62 325.78 C 150.74 321.88 152.28 318.11 153.37 314.19 C 154.24 311.00 155.21 307.84 156.31 304.72 L 156.76 305.34 C 160.20 307.62 158.91 311.36 160.61 314.23 Z" />
<path fill="#9597a2" d=" M 50.99 305.84 C 56.80 305.60 60.33 312.81 65.73 314.91 C 66.06 315.17 66.74 315.69 67.08 315.95 C 59.98 320.73 55.43 306.99 50.01 313.06 C 50.17 310.63 50.49 308.22 50.99 305.84 Z" />
<path fill="#997b70" d=" M 109.05 305.83 C 115.55 306.05 111.32 312.45 109.01 315.43 C 106.17 312.68 106.81 308.71 109.05 305.83 Z" />
<path fill="#b2b5b8" d=" M 36.82 338.00 C 40.75 327.83 42.17 316.92 45.72 306.68 C 45.96 308.18 46.15 309.70 46.29 311.22 C 45.46 320.23 44.39 329.27 41.90 338.00 L 36.82 338.00 Z" />
<path fill="#cfcdb7" d=" M 71.73 316.01 C 75.35 313.01 79.44 310.66 83.73 308.79 C 82.96 313.48 80.38 316.63 76.48 319.15 C 74.85 318.17 73.28 317.11 71.73 316.01 Z" />
<path fill="#acaebb" d=" M 150.17 310.14 C 152.33 310.47 153.38 312.04 153.37 314.19 C 152.28 318.11 150.74 321.88 149.62 325.78 C 148.37 329.85 147.20 333.95 145.86 338.00 L 138.83 338.00 C 142.36 328.67 143.20 317.67 150.17 310.14 Z" />
<path fill="#b0b7cb" d=" M 50.01 313.06 C 55.43 306.99 59.98 320.73 67.08 315.95 L 67.04 316.91 C 64.31 316.92 61.58 316.99 58.86 317.13 C 61.10 319.91 63.73 322.40 66.92 324.05 L 67.03 324.74 C 66.27 329.14 65.73 333.59 65.00 338.00 L 45.76 338.00 C 47.24 329.70 49.30 321.48 50.01 313.06 Z" />
<path fill="#6f6c5d" d=" M 65.73 314.91 C 66.33 314.61 67.53 314.01 68.13 313.71 C 69.35 314.43 70.55 315.21 71.73 316.01 C 73.28 317.11 74.85 318.17 76.48 319.15 C 78.71 320.87 80.87 322.68 82.91 324.61 C 80.55 329.75 81.95 334.87 86.31 338.00 L 81.04 338.00 C 81.02 336.40 81.01 334.80 80.97 333.21 C 81.91 328.36 77.96 322.86 72.75 324.12 C 72.56 323.75 72.17 323.00 71.97 322.63 C 70.77 320.14 69.22 317.73 67.08 315.95 C 66.74 315.69 66.06 315.17 65.73 314.91 Z" />
<path fill="#acaa98" d=" M 67.08 315.95 C 69.22 317.73 70.77 320.14 71.97 322.63 C 65.10 327.79 75.82 331.82 75.14 338.00 L 69.06 338.00 C 67.91 333.87 71.23 327.66 67.03 324.74 L 66.92 324.05 C 66.95 322.27 67.01 318.70 67.04 316.91 L 67.08 315.95 Z" />
<path fill="#e0e6ee" d=" M 58.86 317.13 C 61.58 316.99 64.31 316.92 67.04 316.91 C 67.01 318.70 66.95 322.27 66.92 324.05 C 63.73 322.40 61.10 319.91 58.86 317.13 Z" />
<path fill="#747562" d=" M 157.06 331.56 C 167.40 333.57 173.54 323.75 181.08 318.90 C 179.81 325.40 176.80 331.45 175.70 338.00 L 145.86 338.00 C 147.20 333.95 148.37 329.85 149.62 325.78 C 149.33 329.20 151.50 331.97 154.74 332.86 C 156.20 329.22 157.40 325.48 159.02 321.92 C 158.96 325.24 157.92 328.40 157.06 331.56 Z" />
<path fill="#828272" d=" M 133.82 321.88 C 135.77 320.49 140.09 316.32 136.44 324.51 C 135.32 329.03 133.89 333.46 132.86 338.00 L 128.86 338.00 C 130.56 332.64 131.91 327.17 133.82 321.88 Z" />
<path fill="#c2c3bf" d=" M 75.14 338.00 C 75.82 331.82 65.10 327.79 71.97 322.63 C 72.17 323.00 72.56 323.75 72.75 324.12 C 74.65 327.80 78.44 329.99 80.97 333.21 C 81.01 334.80 81.02 336.40 81.04 338.00 L 75.14 338.00 Z" />
<path fill="#8f8e8b" d=" M 72.75 324.12 C 77.96 322.86 81.91 328.36 80.97 333.21 C 78.44 329.99 74.65 327.80 72.75 324.12 Z" />
<path fill="#868773" d=" M 84.86 326.27 C 89.47 320.02 103.08 331.58 89.68 329.96 C 88.03 328.79 86.40 327.59 84.86 326.27 Z" />
<path fill="#a7a6a5" d=" M 105.67 324.97 C 106.11 324.94 106.99 324.90 107.43 324.88 C 106.37 328.47 107.05 329.59 110.01 327.07 C 108.39 341.40 111.74 324.76 113.24 329.54 C 115.07 327.47 117.37 327.19 119.73 328.57 C 119.75 330.61 117.44 335.63 121.00 332.97 C 120.56 334.64 120.15 336.31 119.78 338.00 L 109.38 338.00 C 109.54 334.64 105.76 335.62 104.04 333.82 C 103.89 330.77 105.27 327.94 105.67 324.97 Z" />
<path fill="#6a6a60" d=" M 246.48 338.00 C 250.93 333.16 255.15 328.11 260.00 323.65 L 260.00 338.00 L 246.48 338.00 Z" />
<path fill="#82867a" d=" M 67.03 324.74 C 71.23 327.66 67.91 333.87 69.06 338.00 L 65.00 338.00 C 65.73 333.59 66.27 329.14 67.03 324.74 Z" />
<path fill="#3d3b2f" d=" M 86.31 338.00 C 81.95 334.87 80.55 329.75 82.91 324.61 C 83.40 325.03 84.38 325.86 84.86 326.27 C 86.40 327.59 88.03 328.79 89.68 329.96 C 91.08 330.98 92.49 332.01 93.89 333.04 C 95.35 334.69 96.80 336.37 98.29 338.00 L 86.31 338.00 Z" />
</svg>
